<svg xmlns:dc="http://purl.org/dc/elements/1.1/" xmlns:cc="http://creativecommons.org/ns#" xmlns:rdf="http://www.w3.org/1999/02/22-rdf-syntax-ns#" xmlns:svg="http://www.w3.org/2000/svg" xmlns="http://www.w3.org/2000/svg" xmlns:sodipodi="http://sodipodi.sourceforge.net/DTD/sodipodi-0.dtd" xmlns:inkscape="http://www.inkscape.org/namespaces/inkscape" width="210mm" height="297mm" viewBox="0 0 210 297" version="1.1" id="svg8" inkscape:version="1.0.2 (e86c870879, 2021-01-15)" sodipodi:docname="globe.svg">
  <defs id="defs2">
    <meshgradient inkscape:collect="always" id="meshgradient849" gradientUnits="userSpaceOnUse" x="48.638161" y="84.258034">
      <meshrow id="meshrow863">
        <meshpatch id="meshpatch865">
          <stop path="c 27.4749,-26.9412  79.1296,-28.2741  99.4953,0" style="stop-color:#ffffff;stop-opacity:1" id="stop867"/>
          <stop path="c 27.4749,26.9412  27.4749,70.6216  0,97.5629" style="stop-color:#0a2233;stop-opacity:1" id="stop869"/>
          <stop path="c -27.4749,26.9412  -72.0205,26.9412  -99.4953,0" style="stop-color:#ffffff;stop-opacity:1" id="stop871"/>
          <stop path="c -27.4749,-26.9412  -27.4749,-70.6216  1.42109e-14,-97.5629" style="stop-color:#0a2233;stop-opacity:1" id="stop873"/>
        </meshpatch>
      </meshrow>
    </meshgradient>
  </defs>
  <sodipodi:namedview id="base" pagecolor="#ffffff" bordercolor="#666666" borderopacity="1.0" inkscape:pageopacity="0.0" inkscape:pageshadow="2" inkscape:zoom="1.0074671" inkscape:cx="342.58978" inkscape:cy="566.58414" inkscape:document-units="mm" inkscape:current-layer="layer1" inkscape:document-rotation="0" showgrid="false" inkscape:snap-midpoints="true" inkscape:snap-intersection-paths="true" inkscape:snap-nodes="false" inkscape:window-width="1337" inkscape:window-height="723" inkscape:window-x="13" inkscape:window-y="70" inkscape:window-maximized="0"/>
  <metadata id="metadata5">
    <rdf:RDF>
      <cc:Work rdf:about="">
        <dc:format>image/svg+xml</dc:format>
        <dc:type rdf:resource="http://purl.org/dc/dcmitype/StillImage"/>
        <dc:title/>
      </cc:Work>
    </rdf:RDF>
  </metadata>
  <g inkscape:label="Layer 1" inkscape:groupmode="layer" id="layer1">
    <ellipse style="mix-blend-mode:normal;fill:url(#meshgradient849);fill-opacity:1;fill-rule:evenodd;stroke-width:0.264583" id="path10" cx="98.385826" cy="133.03947" rx="70.353821" ry="68.987381"/>
    <path style="fill:#552200;fill-opacity:1;stroke-width:2.85714" d="m 455.93237,742.44965 c 6.90586,-12.90371 28.76252,-43.94658 41.74425,-59.28905 14.5391,-17.18306 60.30043,-60.09891 72.74586,-68.22245 4.16093,-2.71598 17.47765,-11.76429 29.5927,-20.10735 12.11506,-8.34306 22.74637,-14.4502 23.62515,-13.57143 0.87877,0.87878 1.06205,2.02834 0.40729,2.5546 -0.65476,0.52625 -12.76191,9.0588 -26.90476,18.96122 -28.18759,19.73613 -56.03161,43.01637 -75.27748,62.9391 -15.82338,16.37986 -52.01963,61.4356 -59.10479,73.57142 -5.94331,10.18001 -12.11312,13.03886 -6.82822,3.16394 z" id="path1019" transform="scale(0.26458333)"/>
    <path style="fill:#552200;fill-opacity:1;stroke-width:2.85714" d="m 399.58859,755.33804 c 0.88924,-2.93592 4.36679,-15.62375 7.72789,-28.19518 8.07132,-30.18897 26.92274,-78.45753 35.68405,-91.36804 C 446.85024,630.10195 450,624.64983 450,623.65899 c 0,-4.72661 48.67549,-48.68926 60,-54.1907 24.07267,-11.69449 45.86205,-20.89686 49.47963,-20.89686 1.98502,0 15.12845,-3.68347 29.20761,-8.18549 30.99447,-9.91093 47.86775,-12.90806 46.30683,-8.22529 -0.60337,1.81011 -5.50958,4.34401 -10.9027,5.63089 -16.93179,4.04018 -46.83055,14.1613 -49.6628,16.8115 -1.49286,1.3969 -4.46163,2.53982 -6.59727,2.53982 -6.86138,0 -50.58445,22.47986 -65.26816,33.5571 -42.17009,31.81268 -69.28003,76.25321 -91.81348,150.50713 -2.82427,9.30675 -6.85468,17.49458 -8.95646,18.19518 -2.60713,0.86904 -3.30766,-0.42241 -2.20461,-4.06423 z" id="path1021" transform="scale(0.26458333)"/>
    <path style="fill:#552200;fill-opacity:1;stroke-width:2.85714" d="M 356.03949,725.74317 C 352.24546,684.2098 340.77282,620.37814 334.33798,605 c -1.60759,-3.84186 -0.6978,-5 3.92777,-5 7.11536,0 7.41869,-2.5502 1.88004,-15.80606 l -4.13992,-9.90823 h 9.85421 c 12.22285,0 12.63695,-4.11388 2.32184,-23.06614 C 331.91258,521.32744 308.45678,513.74043 220,509.75789 c -23.57143,-1.06124 -44.78571,-2.30682 -47.14286,-2.76796 -2.35714,-0.46114 -18.10714,-0.93681 -35,-1.05704 -22.76715,-0.16204 -30.71428,-1.15501 -30.71428,-3.83765 0,-2.25101 4.05011,-3.67484 10.71428,-3.76665 22.79746,-0.31406 123.07237,-4.5702 140.71429,-5.97257 10.21428,-0.81195 22.10714,-1.50296 26.42857,-1.53558 4.32143,-0.0326 7.85714,-1.03413 7.85714,-2.22559 0,-1.19145 2.89286,-2.28957 6.42857,-2.44025 12.79933,-0.54548 17.90004,-1.93607 20.1756,-5.50041 1.27516,-1.99733 3.59339,-2.84357 5.15164,-1.88052 1.55825,0.96305 5.16575,-0.93848 8.01667,-4.22562 2.85092,-3.28714 6.50045,-5.97662 8.11006,-5.97662 1.60961,0 3.73329,-3.21429 4.7193,-7.14286 1.08317,-4.3157 3.83208,-7.14286 6.94515,-7.14286 4.17073,0 5.81666,-3.94662 8.63884,-20.71428 7.42465,-44.11273 14.73336,-128.68107 14.69203,-170 -0.0158,-15.80241 0.92225,-20.71429 3.95596,-20.71429 3.28288,0 4.17503,14.82958 5.11358,85 1.00363,75.03603 1.74053,86.13149 6.28632,94.65239 2.93374,5.49923 4.5392,12.84438 3.73125,17.07094 -1.78874,9.35712 13.37855,39.46337 21.11898,41.92009 3.01811,0.95791 5.50717,3.26216 5.53122,5.12055 0.0257,1.99694 1.17652,1.62606 2.8134,-0.90682 1.66935,-2.58313 2.78703,-2.93206 2.8134,-0.87834 0.0229,1.87406 2.61518,2.91217 5.75803,2.30691 3.14286,-0.60526 5.71429,0.15665 5.71429,1.69314 0,1.78369 1.82206,1.81849 5.04008,0.0963 3.3502,-1.79297 7.94629,-1.47541 13.70772,0.94709 4.7672,2.00446 15.03488,3.70762 22.81706,3.7848 7.7822,0.0772 30.86371,0.9531 51.29228,1.94648 20.42857,0.99339 51.75554,2.27864 69.61549,2.85612 17.85994,0.57747 33.51103,2.12298 34.7802,3.43446 1.26917,1.31148 1.61374,5.92023 0.76574,10.24166 -1.24906,6.36493 -3.0828,7.85714 -9.65557,7.85714 -11.82429,0 -89.5364,16.36028 -111.22014,23.41453 -37.27138,12.12529 -75.9406,44.00303 -87.51415,72.14397 -2.93865,7.14532 -6.30728,12.99632 -7.48585,13.0022 -1.17858,0.006 -2.14286,2.325 -2.14286,5.15358 0,2.82857 -1.26517,6.40802 -2.81149,7.95434 -3.42534,3.42534 -21.76857,81.95066 -24.47151,104.75994 -1.25463,10.58717 -3.26897,16.42857 -5.66526,16.42857 -2.04512,0 -4.3669,-1.60714 -5.15951,-3.57143 -1.15288,-2.85714 -1.48622,-2.85714 -1.66667,0 -0.12406,1.96429 -1.51385,3.57143 -3.08843,3.57143 -1.88798,0 -2.21838,-25.78271 -0.97025,-75.71428 1.41573,-56.63643 1.05721,-75.71429 -1.42285,-75.71429 -2.43245,0 -3.31546,20.16517 -3.31546,75.71429 0,71.76 -0.27603,75.71428 -5.28509,75.71428 -4.69679,0 -5.66249,-4.13128 -8.67542,-37.11397 z m 31.136,-7.20651 c 1.81305,-17.2666 4.03048,-33.32237 4.92762,-35.67952 0.89718,-2.35714 4.5096,-18.04477 8.02766,-34.86137 5.95597,-28.47006 19.95306,-65.13863 24.86466,-65.13863 1.18108,0 2.14743,-2.01397 2.14743,-4.47548 0,-3.19609 -2.24437,-4.21706 -7.85097,-3.57143 -6.83486,0.78706 -8.70152,3.29611 -14.4228,19.38626 -3.61452,10.1652 -8.46338,30.73662 -10.7752,45.71428 -2.31186,14.97766 -5.39892,33.0178 -6.86018,40.08923 -3.13471,15.17009 -7.13813,73.51623 -4.89866,71.3938 0.84921,-0.80486 3.02742,-15.59057 4.84044,-32.85714 z" id="path1023" transform="scale(0.26458333)"/>
    <path style="fill:#552200;fill-opacity:1;stroke-width:2.85714" d="m 110,474.53269 c 0,-1.64739 3.53571,-3.77218 7.85714,-4.72176 4.32143,-0.94958 12.35715,-3.37247 17.85715,-5.3842 5.5,-2.01172 15.05128,-4.57496 21.22507,-5.69607 12.71633,-2.30918 50.25986,-17.41886 71.63207,-28.82886 51.0695,-27.26452 84.34959,-73.48399 108.38745,-150.52874 5.74584,-18.41625 11.67353,-34.24213 13.17263,-35.16862 3.72685,-2.30332 3.38008,2.64101 -1.70896,24.36699 -12.42261,53.03412 -34.04504,104.88912 -51.65611,123.88188 C 293.0449,396.46682 290,400.5976 290,401.63282 c 0,3.18994 -20.94125,21.4383 -30,26.14221 -4.71429,2.44798 -9.34299,5.64266 -10.28602,7.0993 -0.94302,1.45664 -3.51445,2.92298 -5.71428,3.25853 -2.19984,0.33555 -9.78541,3.29386 -16.85684,6.57402 -23.05983,10.69655 -55.20206,20.70834 -81.42857,25.36369 -14.14286,2.51044 -27.96429,5.21534 -30.71429,6.0109 -2.75,0.79555 -5,0.0986 -5,-1.54878 z" id="path1025" transform="scale(0.26458333)"/>
    <path style="fill:#552200;fill-opacity:1;stroke-width:2.85714" d="m 624.28571,474.16307 c -99.89637,-30.88931 -115.511,-38.11772 -143.52845,-66.44296 -23.24825,-23.50366 -37.60125,-46.36677 -47.89431,-76.29154 -1.8918,-5.5 -4.53677,-12.57143 -5.8777,-15.71428 -4.01923,-9.42019 -17.41176,-67.66873 -15.90489,-69.1756 3.06524,-3.06524 6.94627,2.52918 8.82112,12.71547 4.88711,26.55228 32.66994,97.28552 39.38423,100.26965 1.17858,0.52381 16.3248,27.93307 16.3248,30.30125 0,7.43173 32.01244,25.67747 53.06134,37.97069 22.87428,13.35929 60.53049,29.43407 85.61386,36.54706 9.42858,2.6737 18.21918,5.85952 19.53467,7.07961 3.82186,3.54467 -1.75255,5.14699 -9.53467,2.74065 z" id="path1027" transform="scale(0.26458333)" sodipodi:nodetypes="ssssssssssss"/>
    <path style="fill:#00ffff;fill-opacity:1;stroke-width:2.85714" d="m 331.08904,752.14286 c -1.03233,-4.32143 -2.83693,-9.14286 -4.01023,-10.71429 -1.17329,-1.57143 -3.06019,-7.35714 -4.19311,-12.85714 -1.13292,-5.5 -3.98823,-14.5 -6.34513,-20 C 293.21754,654.14545 274.54523,625.88924 246.45375,602.51126 230.48173,589.21921 196.84351,569.61623 192.14286,570.86109 190.96429,571.1732 190,570.14286 190,568.57143 c 0,-1.57143 -1.75712,-2.85714 -3.90471,-2.85714 -3.59949,0 -22.41413,-6.87966 -43.23815,-15.81022 -4.71428,-2.02177 -14.03571,-5.12682 -20.71428,-6.90013 -11.36507,-3.01767 -16.81455,-8.71823 -8.33424,-8.71823 3.6187,0 52.83524,15.13166 61.90567,19.03295 2.35714,1.01383 5.57142,2.00771 7.14285,2.20863 1.57143,0.20092 7.35715,2.4068 12.85715,4.90195 32.43662,14.71531 44.83298,21.32936 49.28571,26.29628 2.75,3.06757 5,4.56329 5,3.32382 0,-1.23946 6.37854,4.22638 14.17454,12.14631 C 281.64052,619.93931 310,661.08484 310,668.68181 c 0,3.08215 1.28571,5.6039 2.85714,5.6039 1.57143,0 2.85715,2.31429 2.85715,5.14286 0,2.82857 1.11179,6.36429 2.47066,7.85714 1.35886,1.49286 5.75674,14.92858 9.77306,29.85715 C 338.21231,755.25782 339.0826,760 335.82315,760 c -1.57142,0 -3.70178,-3.53571 -4.73411,-7.85714 z" id="path1029" transform="scale(0.26458333)"/>
    <path style="fill:#00ffff;fill-opacity:1;stroke-width:2.85714" d="m 594.76539,492.46625 c -0.26382,-0.215 -10.76539,-1.25024 -23.33682,-2.30054 -12.57143,-1.05031 -24.78571,-2.40848 -27.14286,-3.01815 -2.35714,-0.60968 -14.49631,-1.90079 -26.97593,-2.86913 -12.47962,-0.96834 -24.02844,-2.58769 -25.66405,-3.59855 -1.63561,-1.01087 -4.92501,-2.0582 -7.30978,-2.3274 -16.65535,-1.88016 -34.3117,-8.97311 -34.3797,-13.81109 -0.0241,-1.71205 -1.29009,-1.18425 -2.81339,1.1729 -2.37736,3.67869 -2.77584,3.59022 -2.81339,-0.62462 -0.028,-3.14471 -1.55838,-4.32911 -4.25604,-3.29392 -4.3147,1.6557 -12.93057,-4.91247 -12.93057,-9.85742 0,-1.51554 -1.92857,-3.4956 -4.28572,-4.40012 -2.35714,-0.90452 -4.28571,-3.61351 -4.28571,-6.01997 0,-2.40646 -1.27052,-4.37538 -2.82338,-4.37538 -1.55286,0 -3.64575,-5.14286 -4.65088,-11.42857 -1.00513,-6.28572 -2.81151,-11.42858 -4.0142,-11.42858 -5.63156,0 -16.77087,-93.70799 -16.96481,-142.71428 -0.0662,-16.72656 0.95592,-28.66345 2.32414,-27.14286 1.34327,1.49286 3.96643,16.21429 5.82925,32.71429 6.72893,59.60171 17.04588,107.96319 25.03806,117.36783 2.10829,2.48088 3.83325,6.03404 3.83325,7.89591 0,5.02573 6.44584,15.56993 12.14285,19.86347 2.75,2.07253 5,5.83819 5,8.36813 0,2.52994 0.78297,3.81693 1.73992,2.85997 0.95696,-0.95695 6.26809,2.65778 11.80252,8.03275 5.53443,5.37497 11.18004,9.08205 12.54579,8.23797 1.36576,-0.84409 2.4832,-0.32306 2.4832,1.15783 0,2.57581 6.53892,5.42447 18.34719,7.99287 3.01952,0.65677 6.87667,2.33208 8.57143,3.72292 1.69476,1.39084 5.65281,2.97239 8.79567,3.51457 3.14286,0.54218 6.38158,1.86683 7.19716,2.94366 0.81558,1.07684 7.27336,2.65297 14.35062,3.50253 7.07726,0.84955 25.05282,4.01719 39.9457,7.0392 14.89287,3.02201 35.11597,6.39381 44.94022,7.49289 25.1239,2.81071 25.59823,7.40168 0.66934,6.47841 -11.23617,-0.41615 -20.64525,-0.93253 -20.90908,-1.14752 z" id="path1031" transform="scale(0.26458333)"/>
    <path style="fill:#00ffff;fill-opacity:1;stroke-width:2.85714" d="m 598.57143,457.41154 c -41.6855,-15.10546 -64.69706,-23.91747 -89.57528,-43.93097 -30.3622,-24.42514 -42.93724,-41.31049 -57.38587,-71.30807 -16.98762,-35.26892 -36.23956,-93.60107 -30.89208,-93.60107 1.2406,0 5.31681,9.96428 9.05825,22.14286 14.32334,46.62323 46.94266,104.20219 70.22355,123.95716 24.74417,20.99664 86.43926,56.75712 97.91914,56.75712 2.87304,0 6.44515,1.06897 7.938,2.37549 1.49286,1.30652 8.17857,3.92956 14.85715,5.82898 6.67857,1.89941 12.14285,4.68759 12.14285,6.19594 0,3.8925 -0.97617,3.65284 -34.28571,-8.41744 z" id="path1033" transform="scale(0.26458333)" sodipodi:nodetypes="sssssssssss"/>
    <path style="fill:#00ffff;fill-opacity:1;stroke-width:2.85714" d="m 134.28571,467.26179 c 6.28572,-2.04361 22.35715,-7.16136 35.71429,-11.37276 13.35714,-4.21141 72.92649,76.86877 87.85506,69.58415 22.71016,-11.08177 -24.72022,-236.64531 15.00208,-128.17341 13.92686,38.03084 44.24321,-56.26182 62.71869,-110.00228 6.45368,-18.7721 12.45393,-34.84353 13.33388,-35.71429 7.48578,-7.40755 -20.40433,81.64248 -33.95569,108.4168 -28.22029,55.75666 -69.75917,84.27693 -152.09688,104.42851 -30.1582,7.38102 -48.00175,9.15046 -28.57143,2.83328 z" id="path1035" transform="scale(0.26458333)" sodipodi:nodetypes="sssssssss"/>
    <path style="fill:#00ffff;fill-opacity:1;stroke-width:2.85714" d="m 465.48862,746.86322 c -6.96951,-23.66289 158.0962,-154.77115 156.5773,-155.41697 -5.79155,-2.46252 -117.32608,74.74356 -33.0804,28.75328 21.23744,-11.59366 -46.34545,66.45997 -51.92769,58.48532 -11.04222,-15.77462 -70.50393,71.79522 -71.56921,68.17837 z" id="path1037" transform="scale(0.26458333)" sodipodi:nodetypes="sssss"/>
    <path style="fill:#00ffff;fill-opacity:1;stroke-width:2.85714" d="" id="path1039" transform="scale(0.26458333)"/>
    <path style="fill:#00ffff;fill-opacity:1;stroke-width:2.85714" d="m 402.38222,750.62242 c 0.98706,-2.80053 3.76835,-12.70859 6.18063,-22.0179 6.12618,-23.64169 22.06806,-64.59815 34.47937,-88.58133 7.86621,-15.20038 16.09311,-25.35089 33.10035,-40.83984 25.4473,-23.17554 39.58618,-32.14663 67.48249,-42.81754 25.54029,-9.76969 82.61657,-25.71384 86.91742,-24.28022 1.8783,0.6261 -4.86823,3.43527 -14.99227,6.24261 -25.95212,7.19637 -75.16429,27.66251 -96.22356,40.01702 C 471.00136,606.69548 437.21771,654.83845 412.90509,730 c -3.55819,11 -7.78526,21.28571 -9.39349,22.85714 -1.97923,1.93394 -2.34415,1.21185 -1.12938,-2.23472 z" id="path1041" transform="scale(0.26458333)"/>
    <path style="fill:#803300;fill-opacity:1;stroke-width:2.85714" d="m 360.23224,747.85714 c -7.18816,-56.44148 -14.44573,-103.11483 -18.90206,-121.55894 -4.82145,-19.95526 -4.89829,-22.33349 -0.82228,-25.44726 4.38633,-3.35083 4.24015,-10.4162 -0.44617,-21.56523 -1.74018,-4.14 -0.57482,-5 6.77544,-5 10.77781,0 11.68699,-6.1484 3.33116,-22.5272 -16.91078,-33.14786 -45.10948,-40.76846 -165.88262,-44.82922 -75.48713,-2.5381 -87.427542,-5.46097 -32.85714,-8.04304 128.55486,-6.08275 151.23886,-8.3417 170,-16.9292 11.64939,-5.33224 25.71429,-16.64085 25.71429,-20.67505 0,-2.06474 2.4931,-4.54535 5.54022,-5.51247 3.93538,-1.24904 6.41764,-6.06369 8.56924,-16.62111 4.74412,-23.27839 11.05869,-82.8143 12.94028,-122.00556 0.94307,-19.64286 2.59531,-44.07143 3.67165,-54.28572 l 1.95698,-18.57143 1.89665,28.57143 c 1.04316,15.71429 2.04767,51.12273 2.23224,78.68543 0.22997,34.34408 1.68423,55.29176 4.62131,66.56798 2.35714,9.04968 4.29828,19.28409 4.31363,22.74314 0.0463,10.42886 13.26843,35.50917 21.59714,40.96636 8.62894,5.6539 10.96326,6.25942 30.25209,7.84742 7.31814,0.60248 14.48051,1.82149 15.9164,2.70892 1.43588,0.88742 35.94831,2.97814 76.69428,4.64603 92.79446,3.79845 98.36932,4.46635 98.36932,11.78533 0,7.35352 -5.03435,9.04777 -54.08638,18.2021 -53.30074,9.94724 -80.68151,18.75249 -102.83274,33.06952 -41.05546,26.53543 -60.08591,57.5156 -75.72123,123.26846 -5.354,22.51583 -10.57985,46.7236 -11.61297,53.79503 -2.89007,19.78177 -4.14935,22.51471 -10.1654,22.06154 -5.38179,-0.4054 -5.58128,-3.05389 -5.58128,-74.09811 0,-47.21372 -1.02625,-73.67772 -2.85715,-73.67772 -1.72906,0 -2.85714,12.22954 -2.85714,30.97432 C 370,690.88926 366.48249,760 364.01469,760 c -1.22979,0 -2.9319,-5.46429 -3.78245,-12.14286 z M 388.45691,720 c 3.89623,-41.08017 21.83572,-111.24226 33.32546,-130.33723 7.43034,-12.34863 6.83034,-15.92586 -2.49128,-14.85254 -10.71443,1.23366 -16.06538,13.5562 -24.83312,57.18726 -8.77299,43.65737 -13.08393,77.95251 -12.8483,102.21328 0.22869,23.54414 4.01089,15.69452 6.84724,-14.21077 z" id="path1043" transform="scale(0.26458333)"/>
    <path style="fill:#00ffff;fill-opacity:1;stroke-width:2.85714" d="M 377.57633,737.85714 C 376.57455,727.25 375.74577,694.46429 375.7346,665 375.7235,635.53571 365.05126,527.3424 363.72133,527.3424 c -2.51442,0 3.5769,135.54214 3.20975,178.10617 -0.11649,13.50329 -1.11895,30.33714 -2.22772,37.40857 -1.83365,11.69457 -2.48465,9.49863 -7.19967,-24.28571 -2.85105,-20.42857 -8.31175,-54.32657 -12.13489,-75.32889 -5.31662,-29.20668 -6.17595,-39.12008 -3.65443,-42.15834 2.0368,-2.45417 2.59925,-8.33411 1.4717,-15.3854 -1.72186,-10.76789 -1.41933,-11.41309 5.35159,-11.41309 5.86687,0 7.17663,-1.38814 7.17663,-7.60611 0,-12.01569 -13.13189,-31.47682 -26.54318,-39.33636 -18.75363,-10.99036 78.8875,-20.96642 19.91378,-24.23181 -102.84341,-5.69447 -227.90656,-0.9606 -156.22775,-4.90014 78.79033,-4.33038 111.85138,-8.29564 127.7303,-15.31964 15.50839,-6.8601 38.81439,-52.0323 40.86047,-40.10196 68.47481,399.2643 10.87095,-79.232 14.24813,-131.11866 1.57667,-24.22379 3.30561,-44.4822 3.84209,-45.01869 0.53649,-0.53649 1.81366,29.71358 2.83816,67.22237 2.65182,97.08821 31.32973,176.99295 34.04691,150.13683 5.65745,-55.91729 21.34861,-91.49601 115.38402,3.96955 42.58757,43.23527 97.48235,15.79827 100.54172,18.85766 6.16217,6.16216 -58.14506,23.93227 -107.0089,28.71241 -53.27235,5.21139 67.33399,-14.58896 39.85807,-20.5703 -46.3946,-10.09983 -143.81985,95.73045 -159.36847,153.62911 -5.85478,21.80157 -18.68678,81.71469 -18.68678,87.24934 0,0.70595 -1.74265,1.28355 -3.87256,1.28355 -2.69628,0 -4.42581,-5.85797 -5.69397,-19.28572 z m 13.52735,-26.92377 c 5.66042,-40.29357 15.70076,-80.99271 26.04966,-105.59391 4.21009,-10.00812 119.90305,-117.98664 17.67056,-18.38426 -30.78375,29.99179 -6.12209,-66.5297 -13.453,-65.69242 -6.28137,0.71743 -15.94269,51.88871 -20.01356,60.22348 -8.75456,17.92428 -17.05703,93.36751 -18.94115,132.79945 -2.14076,44.80303 2.15554,43.14518 8.68749,-3.35234 z" id="path1045" transform="scale(0.26458333)" sodipodi:nodetypes="sssssssssssssssssssssssssssssssssss"/>
    <text xml:space="preserve" style="font-size:10.5833px;line-height:1.25;font-family:sans-serif;word-spacing:0px;stroke-width:0.264583" x="48.020832" y="148.44447" id="text1049"><tspan id="tspan1047" x="48.020832" y="148.44447" style="stroke-width:0.264583" sodipodi:role="line"/></text>
    <path style="fill:#ffffff;fill-opacity:1;stroke-width:2" d="M 250.86299,733.47934 C 249.21967,732.1157 243.92664,726.05 239.10071,720 229.17335,707.55461 230.45747,708.95309 205.8125,683.74741 186.2184,663.70752 162.14557,641.53775 152.88059,635 c -5.63473,-3.97609 -7.34972,-7 -3.97001,-7 5.60072,0 65.3525,56.86814 86.15802,82 6.8298,8.25 14.20709,17.10842 16.39399,19.68538 4.4236,5.2126 4.03943,7.64343 -0.5996,3.79396 z" id="path1185" transform="scale(0.26458333)"/>
    <path style="fill:#ffffff;fill-opacity:1;stroke-width:2" d="m 298.59204,750.49634 c -1.74392,-1.92701 -4.14299,-5.75201 -5.33126,-8.5 C 292.07251,739.24835 288.83966,733.4 286.07667,729 c -2.76299,-4.4 -6.04787,-10.025 -7.29974,-12.5 -1.25187,-2.475 -3.03167,-4.5 -3.9551,-4.5 -0.92344,0 -7.67501,-9.0394 -7.67501,-10.51227 0,-6.28361 -29.45969,-41.36969 -52.00737,-62.38086 -13.09717,-12.20465 -32.51036,-27.36334 -37.49659,-29.279 -2.475,-0.95088 -4.5,-2.50942 -4.5,-3.46343 0,-0.95401 -3.375,-3.45128 -7.5,-5.5495 -4.125,-2.09822 -10.28495,-5.83994 -13.68878,-8.31494 -3.40383,-2.475 -6.82658,-4.5 -7.60611,-4.5 -0.77953,0 -4.66992,-2.2102 -8.64532,-4.91155 -3.9754,-2.70135 -7.86442,-4.51821 -8.64228,-4.03747 -1.89261,1.1697 -11.91751,-8.23945 -11.91751,-11.1855 0,-1.59157 1.42023,-1.40433 4.5,0.59328 7.26724,4.7137 14.30326,8.31615 17.17542,8.79383 1.47148,0.24473 4.17148,1.79888 6,3.45367 1.82852,1.65479 3.98151,3.10432 4.78442,3.22119 3.79697,0.55268 29.90999,19.7367 26.15121,4.74797 -0.63198,-2.52015 79.37029,64.56314 79.93583,64.56314 2.68843,0 -31.94288,-19.00652 -18.18706,-4.47005 20.92766,22.11531 43.03393,51.58025 46.94646,62.57387 0.71594,2.01169 2.42359,5.00762 3.79476,6.65762 6.17488,7.43054 19.74258,36 17.09647,36 -0.86766,0 -3.00441,-1.57665 -4.74833,-3.50366 z" id="path1187" transform="scale(0.26458333)" sodipodi:nodetypes="ssssssssssssssssssssssssss"/>
    <path style="fill:#ffffff;fill-opacity:1;stroke-width:2" d="m 349.05576,754.5 c -0.0478,-4.125 -0.95094,-11.55 -2.00676,-16.5 -1.0558,-4.95 -3.18236,-15.3 -4.72566,-23 -5.53288,-27.60526 -9.4428,-43.90847 -11.01686,-45.93702 -0.88042,-1.13464 -2.1956,-5.19139 -2.9226,-9.01499 C 326.03814,647.71083 308.47428,612.1105 299.74519,602 290.51345,591.3073 280.81543,581.71026 272.14286,574.68507 262.30172,566.71329 230.20691,550 224.7397,550 c -1.53826,0 -3.65184,-0.80036 -4.69684,-1.77857 -4.10287,-3.84066 -55.03019,-16.46087 -84.9,-21.03892 -6.54059,-1.00246 -12.63343,-2.1282 -23.5,-4.34197 -5.92927,-1.20792 -5.92927,-6.87316 0,-6.73784 2.475,0.0565 10.8,0.91469 18.5,1.90711 7.7,0.99242 18.5,2.2828 24,2.86752 28.19978,2.99797 78.7755,13.20508 90,18.16364 3.3,1.45781 8.7,3.32223 12,4.14314 8.93659,2.22309 25.15109,10.78516 30.43956,16.07363 2.55824,2.55824 5.10298,4.64285 5.65497,4.63246 2.96857,-0.0559 15.43125,11.52465 19.18119,17.8235 2.3858,4.00746 5.40256,8.1863 6.70392,9.2863 3.17598,2.68455 16.10924,31.80296 19.01674,42.81496 4.3444,16.45415 10.27682,47.1232 12.2221,63.18504 1.0658,8.8 3.25264,25.97418 4.85966,38.16484 3.66098,27.77168 3.6986,26.83516 -1.07814,26.83516 -3.2734,0 -4.01582,-1.36236 -4.0871,-7.5 z" id="path1189" transform="scale(0.26458333)"/>
    <path style="fill:#ffffff;fill-opacity:1;stroke-width:2" d="m 601.82362,402.89507 c -9.72442,-7.20771 -18.58076,-14.18271 -19.68076,-15.5 -1.1,-1.31729 -5.2284,-4.8158 -9.18662,-7.75783 -19.5082,-14.49986 -81.33096,-5.56628 -120.42927,-54.98081 C 437.57929,305.76475 476.58205,266 478.92641,266 c 2.30163,0 66.39337,77.28912 66.39337,80.33639 0,1.097 44.94383,42.1911 45.8178,42.1911 0.87396,0 -161.66191,21.71459 -157.31087,27.46448 C 443.98496,429.41608 586.89948,388 590.25809,388 c 1.40329,0 2.85143,0.72245 3.2181,1.60545 0.36667,0.883 6.74167,6.4445 14.16667,12.35889 11.5774,9.22198 15.9264,14.03566 12.68076,14.03566 -0.45059,0 -8.77559,-5.89722 -18.5,-13.10493 z" id="path1191" transform="scale(0.26458333)" sodipodi:nodetypes="sssssssssssss"/>
    <path style="fill:#ffffff;fill-opacity:1;stroke-width:2" d="m 615.00985,432.53043 c -3.77684,-2.6416 -11.17791,-7.02496 -16.44682,-9.74081 -5.2689,-2.71585 -13.8189,-8.04874 -19,-11.85088 -5.18109,-3.80213 -13.25298,-9.72987 -17.93752,-13.17276 -4.68454,-3.44288 -12.33454,-9.75555 -17,-14.02814 -4.66546,-4.27259 -10.05765,-8.27214 -11.98265,-8.88787 -1.925,-0.61574 -3.5,-2.06475 -3.5,-3.22004 0,-1.15528 -3.74602,-5.81964 -8.32449,-10.36522 -14.40383,-14.30039 -39.04364,-47.10289 -49.43438,-65.81102 -6.68422,-12.03471 -20.21442,-38.08589 -20.23137,-38.95369 -0.005,-0.275 1.18816,-0.5 2.65228,-0.5 1.46412,0 3.92615,2.475 5.47118,5.5 1.54502,3.025 6.19711,11.14085 10.33796,18.03523 4.14085,6.89437 7.52882,13.41937 7.52882,14.5 0,1.08062 0.79503,1.96477 1.76674,1.96477 0.9717,0 2.33608,1.575 3.03196,3.5 1.52733,4.22507 5.30969,10.58721 8.66403,14.57338 1.3545,1.60964 8.00607,10.04727 14.78127,18.75028 17.79058,22.85272 44.14421,48.26762 68.59123,66.14799 4.49062,3.28441 9.90947,7.55941 12.04189,9.5 2.13242,1.94059 4.83242,3.52945 6,3.53079 1.16758,0.001 4.60396,2.02635 7.6364,4.5 3.03244,2.47366 10.45744,7.60502 16.5,11.40303 6.04256,3.798 10.98648,7.473 10.98648,8.16666 0,2.67853 -5.56014,1.05549 -12.13301,-3.5417 z" id="path1193" transform="scale(0.26458333)"/>
    <path style="fill:#ffffff;fill-opacity:1;stroke-width:2" d="m 113.17348,444.39795 c 0.0772,-3.52385 4.49946,-6.47617 25.96938,-17.3373 12.65,-6.39934 29.6497,-16.0059 37.77711,-21.34791 8.12741,-5.34201 15.55241,-9.71274 16.5,-9.71274 0.94759,0 1.72289,-0.87126 1.72289,-1.93613 0,-1.06486 2.13035,-3.08986 4.73411,-4.5 18.06895,-9.78567 54.23146,-47.04834 76.24433,-78.56387 12.32329,-17.64309 14.58791,-21.33855 28.39137,-46.32978 6.75163,-12.22386 11.79057,-18.17651 13.73797,-16.22911 1.02862,1.02862 -23.00097,49.21812 -26.90828,53.96249 -1.17607,1.42802 -6.15188,8.60682 -11.05735,15.95289 -4.90547,7.34606 -10.69547,15.44606 -12.86667,18 -2.17119,2.55393 -7.84639,9.31422 -12.61155,15.02287 -10.29577,12.33428 -45.62378,43.47584 -54.44652,47.99448 -3.41958,1.75136 -6.66741,3.78868 -7.21741,4.52739 -4.62078,6.20616 -80.05503,44.40627 -79.96938,40.49672 z" id="path1195" transform="scale(0.26458333)"/>
    <path style="fill:#ffffff;fill-opacity:1;stroke-width:2" d="m 107.14286,490.51156 c 0,-3.29024 2.67594,-4.06704 21.5,-6.24118 32.71333,-3.77834 61.03807,-8.3226 65.57941,-10.52116 2.24368,-1.08624 7.41465,-2.14916 11.49104,-2.36208 4.07638,-0.21294 7.41565,-0.89242 7.42058,-1.51 0.005,-0.61756 7.20897,-2.75706 16.00897,-4.75444 8.8,-1.99738 16,-4.4171 16,-5.37714 0,-0.96006 1.8,-1.74556 4,-1.74556 2.2,0 4,-0.966 4,-2.14664 0,-1.18066 1.575,-1.81532 3.5,-1.41036 1.925,0.40498 5.075,-1.01674 7,-3.15936 1.925,-2.14262 3.5,-3.28722 3.5,-2.54356 0,0.74368 2.09684,-0.0218 4.65965,-1.70098 2.56281,-1.67922 5.26281,-2.44998 6,-1.71278 0.73719,0.73718 1.34035,-0.15966 1.34035,-1.99298 0,-1.83334 0.9,-3.44584 2,-3.58334 1.1,-0.1375 2.8969,-0.3625 3.99312,-0.5 1.09621,-0.1375 4.86558,-2.95 8.37637,-6.25 3.51079,-3.3 7.04725,-5.79721 7.85881,-5.54936 0.81156,0.24786 2.05242,-2.17578 2.75748,-5.38587 0.868,-3.95205 2.20188,-5.48349 4.1312,-4.74313 1.6534,0.63446 3.40118,-0.46274 4.16418,-2.61413 0.7232,-2.03913 2.88646,-5.50751 4.80728,-7.70751 1.92082,-2.2 6.94504,-12.1 11.16494,-22 4.2199,-9.9 8.23988,-18.45 8.93328,-19 0.69342,-0.55 1.74598,-3.7 2.33906,-7 0.59306,-3.3 3.87874,-16.8 7.3015,-30 6.05388,-23.347 9.63134,-40.72564 14.51272,-70.5 1.96478,-11.98435 3.0262,-14.5 6.11794,-14.5 3.3526,0 3.62262,1.19326 2.60238,11.5 -0.6261,6.325 -1.9729,20.05 -2.99288,30.5 -2.5657,26.28645 -9.8281,74.16184 -11.98382,79 -0.98024,2.2 -2.23406,6.25 -2.78628,9 -2.10408,10.47834 -5.80922,23.24105 -8.5178,29.34033 -1.54858,3.48718 -3.36594,9.092 -4.03858,12.45515 -0.67262,3.36315 -2.411,7.1008 -3.86304,8.30589 -1.45206,1.2051 -2.1785,3.39397 -1.61434,4.86417 0.58554,1.5259 -0.75296,3.23764 -3.11888,3.98855 -2.27956,0.7235 -4.14464,2.83511 -4.14464,4.69246 0,1.85735 27.62859,8.30138 24.32859,9.7621 -3.60502,1.59574 -36.32859,0.43131 -36.32859,2.69621 0,2.36818 -1.01758,3.37912 -2.73716,2.71926 -1.65644,-0.63564 -3.2889,0.77104 -4.1346,3.56276 -0.83788,2.76596 -1.8107,3.61208 -2.4295,2.11312 -1.54592,-3.74472 -4.09729,-3.01596 -5.2804,1.50826 -0.69924,2.6739 -2.10849,3.60136 -4.23326,2.78602 -1.77637,-0.68166 -3.18508,-0.20426 -3.18508,1.07942 0,1.2659 -1.125,2.07336 -2.5,1.79436 -1.375,-0.279 -4.5436,0.62316 -7.04134,2.00482 -2.49773,1.38166 -5.42273,1.96736 -6.5,1.30158 -1.07726,-0.6658 -1.95866,0.19258 -1.95866,1.9075 0,1.71492 -1.575,3.2167 -3.5,3.3373 -1.925,0.1206 -6.2,0.5764 -9.5,1.01292 -3.3,0.43652 -8.25,1.01286 -11,1.28074 -2.75,0.2679 -5.5368,1.21658 -6.19289,2.1082 -0.65609,0.89162 -4.93109,1.67272 -9.5,1.73576 -4.56891,0.0631 -8.30711,0.6937 -8.30711,1.40142 0,0.7077 -2.925,1.41418 -6.5,1.56992 -3.575,0.1558 -9.65,0.7866 -13.5,1.4019 -3.85,0.6153 -12.4,1.63632 -19,2.26894 -6.6,0.63262 -13.81352,1.5307 -16.03005,1.99572 -2.21652,0.46504 -13.46652,1.35174 -25,1.97046 -11.53347,0.61872 -25.24495,1.6153 -30.46995,2.21462 -8.34934,0.95768 -9.5,0.6345 -9.5,-2.6683 z" id="path1197" transform="scale(0.26458333)" sodipodi:nodetypes="ssssssssssssssssssssssssssssssssssssssssssssssssssssssssssssssss"/>
    <path style="fill:#ffffff;fill-opacity:1;stroke-width:2" d="m 420.17629,754.5 c 0.80377,-1.925 2.12078,-5.75 2.92669,-8.5 3.22554,-11.0065 4.99718,-15.05645 16.00997,-36.59872 14.82322,-28.99589 18.48764,-35.62573 21.52991,-38.95288 1.375,-1.50376 2.5,-3.50554 2.5,-4.4484 0,-0.94286 1.14357,-2.90357 2.54128,-4.35714 1.3977,-1.45357 6.08951,-7.14286 10.42624,-12.64286 23.48356,-29.78273 55.49806,-55.84893 91.03248,-74.11864 16.6095,-8.53963 51.7289,-23.37575 60.6111,-25.60504 5.15976,-1.29502 5.42808,-1.08658 3.42338,2.65926 -1.19638,2.23543 -3.02102,4.06442 -4.05476,4.06442 -3.81946,0 -51.72248,22.90476 -62.97972,30.11367 -3.3,2.11326 -7.35,4.48181 -9,5.26345 -1.65,0.78165 -3.9,2.13849 -5,3.01521 -1.1,0.87672 -7.83861,5.8721 -14.97469,11.10085 C 528.0321,610.72193 520.7242,616.35 518.92839,618 c -17.38243,15.97112 -28.16205,27.46783 -38.44268,41 -6.68552,8.8 -12.87265,16.3 -13.74917,16.66667 -0.87653,0.36666 -1.59368,1.55171 -1.59368,2.63344 0,1.08173 -2.25,4.91668 -5,8.52212 -2.75,3.60543 -5,7.5311 -5,8.72369 0,1.1926 -1.125,3.35765 -2.5,4.81122 -3.14647,3.32626 -27.5,52.39896 -27.5,55.41286 0,1.2265 -1.44629,2.23 -3.21398,2.23 -2.28432,0 -2.79126,-1.0124 -1.75259,-3.5 z" id="path1199" transform="scale(0.26458333)"/>
    <path style="fill:#ff6600;fill-opacity:1;stroke-width:2" d="m 127.14286,402.21073 c 0,-1.06151 8.54547,-8.35293 18.98994,-16.20317 10.44447,-7.85024 20.14115,-15.3384 21.54819,-16.64036 1.40703,-1.30196 8.38656,-7.27425 15.51006,-13.27176 19.22536,-16.18647 45.03591,-42.51838 63.80656,-65.09544 9.14544,-11 18.31349,-22.025 20.37344,-24.5 3.92731,-4.71862 9.85413,-6.58479 6.35186,-2 -12.52339,16.39425 -16.11286,20.95621 -19.22253,24.43047 -2.00336,2.23824 -6.79281,8.18654 -10.64322,13.21844 -6.66865,8.7149 -43.32699,45.47601 -59.23632,59.40238 -9.20669,8.05917 -48.76403,37.92588 -53.80359,40.62297 -2.33556,1.24996 -3.67439,1.26324 -3.67439,0.0365 z" id="path1201" transform="scale(0.26458333)"/>
    <path style="fill:#ff6600;fill-opacity:1;stroke-width:2" d="m 431.14286,754.57547 c 0,-3.83796 32.53885,-64.00296 36.00581,-66.57547 0.74123,-0.55 4.70478,-5.95 8.80789,-12 11.73998,-17.3105 33.59026,-40.41683 54.91521,-58.07198 10.7759,-8.92148 21.45351,-17.27998 23.72801,-18.57445 2.2745,-1.29446 13.45217,-7.71924 24.83927,-14.27727 C 597.85462,574.47044 626.05351,560 628.30584,560 c 0.46036,0 0.83702,1.1673 0.83702,2.594 0,1.4267 -6.525,5.96168 -14.5,10.07773 -32.64109,16.84671 -51.33595,28.80151 -75.00849,47.96563 -14.19956,11.49526 -36.76735,33.53355 -49.52462,48.36264 -9.09084,10.56722 -31.62369,45.00797 -42.96689,65.67353 -9.64166,17.56562 -16,25.47457 -16,19.90194 z" id="path1203" transform="scale(0.26458333)"/>
    <path style="fill:#ff6600;fill-opacity:1;stroke-width:2" d="m 392.09798,756.69798 c 0.81847,-3.1339 2.23109,-10.64798 3.13917,-16.69798 0.90807,-6.05 2.65537,-15.05 3.88289,-20 2.02666,-8.17258 6.48381,-28.42725 9.35775,-42.52448 0.61944,-3.03846 1.92248,-6.01658 2.89566,-6.61803 0.97317,-0.60146 1.76941,-3.23733 1.76941,-5.85749 0,-2.62016 0.82169,-5.27176 1.82597,-5.89245 1.00429,-0.62068 2.4334,-4.72379 3.1758,-9.11803 0.7424,-4.39424 2.17071,-7.98952 3.17402,-7.98952 1.00332,0 1.82421,-0.89142 1.82421,-1.98092 0,-3.54616 8.70392,-22.01908 10.37477,-22.01908 0.89388,0 1.62523,-1.28571 1.62523,-2.85714 0,-1.57143 1.13667,-4.04643 2.52593,-5.5 1.38926,-1.45357 20.44318,-6.43388 23.28014,-11.89629 107.47988,-206.94683 -16.41722,-28.73046 -0.0167,0.39027 0.64971,1.15363 -43.84269,-21.71601 43.46334,-43.64739 10.30063,-2.58752 6.2787,-4.81835 30.74727,-13.06577 16.22505,-5.46884 52.20898,-13.35079 82.5,-18.07086 16.15296,-2.51702 17.5,-2.46762 17.5,0.64187 0,3.21161 -6.75638,5.506 -27.05052,9.18603 -3.06256,0.55534 -7.22906,1.89854 -9.25888,2.98487 -2.02984,1.08633 -3.6906,1.55082 -3.6906,1.03219 0,-1.10912 -27.74427,6.40035 -30.8668,8.35464 -1.17326,0.7343 -3.21879,1.49999 -4.54563,1.70152 -5.87201,0.89189 -23.70236,7.51187 -24.81118,9.21179 -0.67298,1.03175 -2.02298,1.90686 -3,1.94469 -2.78155,0.1077 -11.37251,3.35231 -15.77639,5.95837 -2.2,1.30189 -6.3803,3.57017 -9.28955,5.04064 -2.90926,1.47046 -6.39446,4.00489 -7.74489,5.63207 -1.35044,1.62717 -3.3278,2.9585 -4.39413,2.9585 -5.47621,0 -30.59775,24.05775 -41.71235,39.94602 -2.6725,3.82032 -5.98408,8.1596 -7.35908,9.64286 -1.375,1.48326 -2.5,3.98255 -2.5,5.55398 0,1.57143 -0.83021,2.85714 -1.8449,2.85714 -1.01469,0 -2.88449,3.15 -4.1551,7 -1.27062,3.85 -3.14041,7 -4.15511,7 -1.01469,0 -1.84489,1.84348 -1.84489,4.09661 0,2.25314 -1.8,7.82219 -4,12.37566 -2.2,4.55348 -4,9.51312 -4,11.02142 0,1.50831 -0.9,2.18615 -2,1.50631 -1.11178,-0.68711 -2.00547,0.81486 -2.01232,3.38197 -0.007,2.53991 -1.37288,7.22693 -3.03577,10.41559 -1.6629,3.18866 -2.60543,6.21559 -2.09451,6.72651 0.51092,0.51092 -0.37643,4.20202 -1.9719,8.20244 -1.59546,4.00042 -5.47982,17.62349 -8.63191,30.27349 -4.37669,17.56458 -6.56476,23.16494 -9.25883,23.69798 -2.96665,0.58694 -3.29107,-0.20834 -2.03964,-5 z" id="path1205" transform="scale(0.26458333)" sodipodi:nodetypes="sssssssssssssssssssssssssssssssssssssssscssssss"/>
    <path style="fill:#ff6600;fill-opacity:1;stroke-width:2" d="m 615.14286,479.75308 c -6.05,-0.97862 -13.26046,-2.69374 -16.02323,-3.81136 -2.76278,-1.11762 -9.51278,-2.81158 -15,-3.76434 C 567.9714,469.37348 542.74946,462.4066 540.4606,460.11774 539.29584,458.95298 535.93306,458 532.98775,458 c -2.94531,0 -6.47551,-1.35 -7.84489,-3 -1.36938,-1.65 -3.61517,-3 -4.99065,-3 -3.53865,0 -20.61312,-7.74086 -21.99056,-9.9696 -0.63079,-1.02064 -2.46807,-1.34872 -4.08284,-0.72907 -1.83066,0.70249 -2.93595,-0.0833 -2.93595,-2.08735 0,-1.76769 -0.86875,-3.21398 -1.93055,-3.21398 -2.78471,0 -18.12776,-10.14703 -24.56945,-16.24886 -3.025,-2.8654 -5.5,-6.64995 -5.5,-8.41011 0,-1.76016 -1.67657,-4.09757 -3.7257,-5.19423 -2.04914,-1.09666 -4.85359,-4.71689 -6.23211,-8.04495 -1.37853,-3.32806 -3.30197,-5.55934 -4.2743,-4.9584 -0.97234,0.60094 -1.76789,-0.23756 -1.76789,-1.86334 0,-3.65895 -6.45331,-15.25021 -8.5,-15.26746 -0.825,-0.007 -1.5,-1.70274 -1.5,-3.7684 0,-2.06567 -13.87311,-0.85722 -15.73149,-5.11655 -6.59047,-15.10508 -4.47899,-61.34809 -9.16383,-90.1277 -1.61156,-9.9 -3.53188,-20.925 -4.26739,-24.5 -1.06781,-5.19017 -0.69006,-6.5 1.8746,-6.5 1.76655,0 3.62906,2.025 4.13892,4.5 17.90934,86.93691 37.46084,128.7507 77.06115,164.80667 20.07504,18.27827 44.0505,31.13143 76.08804,40.79053 8.25,2.48732 16.35,5.19258 18,6.01168 5.47343,2.7172 45.5356,13.89112 49.80416,13.89112 2.3963,0 4.19584,1.28666 4.19584,3 0,3.34652 -3.2179,3.46768 -20,0.75308 z" id="path1209" transform="scale(0.26458333)" sodipodi:nodetypes="ssssssssssssssssssssssssssssss"/>
    <path style="fill:#ff6600;fill-opacity:1;stroke-width:2" d="M 551.18297,329.04833 C 549.60547,327.14756 549.45375,326 550.77993,326 c 2.41711,0 36.87547,37.89633 35.48848,39.28332 -0.5034,0.5034 -33.694,-34.55841 -35.08544,-36.23499 z" id="path1211" transform="scale(0.26458333)" sodipodi:nodetypes="ssss"/>
    <path style="fill:#ff6600;fill-opacity:1;stroke-width:2" d="m 547.05682,333.41938 c -5.69903,-5.12543 -76.8655,7.01868 -85.45594,-4.05392 -3.3,-4.25352 -6.91295,-8.7336 -8.02877,-9.95574 -6.97779,-7.64266 115.28849,34.20701 116.39318,35.4825 14.65416,16.91975 -41.42708,-53.40334 -33.08482,-43.03132 16.48205,20.49231 -214.08799,-78.19779 9.13243,15.72948 11.32229,4.76422 9.18875,13.15407 1.04392,5.829 z" id="path1213" transform="scale(0.26458333)" sodipodi:nodetypes="sssssss"/>
    <path style="fill:#ff6600;fill-opacity:1;stroke-width:2" d="m 110.33994,461.20762 c 0.58934,-1.53582 7.5361,-4.82808 15.43723,-7.31614 7.90113,-2.48806 15.26569,-5.13066 16.36569,-5.87242 1.1,-0.74176 41.10838,-11.0174 44.95838,-12.44572 6.52667,-2.42131 -20.8563,27.91343 -3.34467,19.95848 11.09588,-5.04049 25.79765,-39.37082 32.74412,-44.66916 3.5064,-2.67446 6.94962,-4.86266 7.65158,-4.86266 0.70197,0 2.44828,-1.125 3.8807,-2.5 1.43242,-1.375 6.89407,-6.1 12.13701,-10.5 10.7111,-8.98902 28.2953,-26.93715 35.27002,-36 2.53966,-3.3 5.76176,-7.18929 7.16021,-8.64286 1.39846,-1.45357 2.54265,-3.47857 2.54265,-4.5 0,-1.02143 1.575,-3.51111 3.5,-5.53264 5.05976,-5.31347 6.97141,-8.6784 20.06818,-35.3245 10.4599,-21.28124 19.97466,-43.21663 23.20636,-53.5 1.23866,-3.94149 7.22546,-4.82546 7.22546,-1.06687 0,2.17321 -2.18153,14.24688 -7.97796,24.56687 -110.80793,197.28285 92.55732,-49.5086 73.79445,-26.24142 -7.70371,9.5531 -152.34105,152.23785 -154.02703,152.23993 -0.6658,8.2e-4 -142.94098,132.07302 -140.89086,138.09677 8.97473,26.36983 117.26208,-123.42664 75.69621,-109.53885 -29.26803,9.77889 -77.16477,38.25599 -75.39773,33.65119 z" id="path1217" transform="scale(0.26458333)" sodipodi:nodetypes="ssssssssssssssssssssss"/>
    <path style="fill:#008080;fill-opacity:1;stroke-width:2" d="m 107.14286,496.18128 c 0,-1.1997 2.925,-2.18346 6.5,-2.18614 27.01548,-0.0202 347.19882,16.54373 367.98868,11.17545 C 487.84032,503.56739 261.66946,476 265.27407,476 c 3.6046,0 7.97469,-1.21976 9.71131,-2.71056 1.73661,-1.4908 8.10748,-4.40818 14.15748,-6.48304 6.05,-2.07488 11.73031,-4.92406 12.62292,-6.33152 0.89261,-1.40746 2.3985,-2.07968 3.34644,-1.49382 0.94794,0.58586 46.72822,40.78385 52.58768,34.76283 C 376.77446,474.14343 336.99474,428.78017 345.14162,403 358.70764,360.0713 364.185,330.55631 369.39748,272.29655 370.7899,256.73345 372.79294,244 373.84868,244 c 4.25966,0 -2.91798,110.94806 -10.80384,167 -4.98038,35.39988 -6.12212,39.46982 -11.8816,42.35404 -2.58542,1.29472 -5.67268,4.61624 -6.86058,7.38118 -2.56862,5.9787 -108.30594,8.95113 -113.02156,8.95113 -1.82876,0 87.70182,9.27359 86.52858,10.44683 -6.36868,6.36868 -40.30605,10.56048 -110.66682,13.66906 -26.95,1.19068 -60.475,2.70384 -74.5,3.3626 -17.81165,0.8366 -25.5,0.54006 -25.5,-0.98356 z" id="path1219" transform="scale(0.26458333)" sodipodi:nodetypes="ssssssssssssssssssss"/>
    <path style="fill:#008080;fill-opacity:1;stroke-width:2" d="m 115.17348,436.43723 c 0.0739,-3.46863 4.05055,-6.42204 20.76634,-15.42299 27.87428,-15.00946 62.74043,-39.19697 78.94421,-54.76556 4.72188,-4.53677 8.9252,-8.24868 9.34073,-8.24868 0.71555,0 12.54768,-12.22454 23.91809,-24.71132 C 258.20756,322.2358 280.82002,290.79233 292.2184,272 c 11.94111,-19.68713 13.88336,-21.93875 18.92446,-21.93875 1.94946,0 2.22624,0.51454 0.79038,1.46938 -1.2153,0.80815 -5.97966,8.21937 -10.58747,16.46937 -10.6563,19.07945 -21.41224,36.44732 -26.62995,43 -0.87589,1.1 -5.5409,7.20709 -10.36667,13.57131 C 253.53518,338.83276 222.97963,372 220.65514,372 c -0.9368,0 -3.6853,2.04206 -6.10778,4.53791 C 209.40765,381.83329 187.91693,398 186.01738,398 c -0.7134,0 -3.97107,2.25 -7.23926,5 -3.26819,2.75 -7.14811,5 -8.62205,5 -1.47393,0 -2.97988,0.79473 -3.34655,1.76606 -0.36666,0.97133 -10.69228,7.1369 -22.9458,13.70127 -24.77588,13.27274 -28.73483,15.06245 -28.69024,12.9699 z" id="path1221" transform="scale(0.26458333)"/>
    <path style="fill:#008080;fill-opacity:1;stroke-width:2" d="m 166.14048,354.00384 c 0.67854,-1.09789 6.34692,-6.72289 12.59641,-12.5 16.36719,-15.13003 23.25674,-41.09409 40.42815,-49.29671 26.99428,-12.89492 24.50097,-15.302 25.19139,-15.66022 12.66063,-6.56883 -38.54418,44.20477 -66.58066,69.95309 -9.78074,8.98249 -14.38388,11.95116 -11.63529,7.50384 z" id="path1223" transform="scale(0.26458333)" sodipodi:nodetypes="ssssss"/>
    <path style="fill:#008080;fill-opacity:1;stroke-width:2" d="M 278.88803,745.47934 C 275.54689,742.68343 261.58419,724.10699 255.97868,715 c -11.90184,-19.33634 -68.23686,-77.05159 -85.96445,-88.07062 -3.22926,-2.00723 -6.77137,-4.67458 -7.87137,-5.92745 -1.1,-1.25287 -9.34315,-6.97499 -18.3181,-12.71583 -16.59537,-10.61525 -22.16416,-15.47051 -20.10537,-17.5293 1.44304,-1.44304 13.42347,5.51171 13.42347,7.79245 0,0.92775 0.80569,1.18887 1.79043,0.58027 0.98474,-0.6086 2.32838,0.29533 2.98587,2.00873 0.6575,1.7134 2.04649,2.58931 3.08665,1.94645 1.04016,-0.64286 2.62152,0.0245 3.51413,1.48292 0.8926,1.45846 5.22292,4.8021 9.62292,7.43031 4.4,2.62821 81.21546,71.95142 84.08794,71.42265 9.19017,-1.69173 23.21539,-60.31366 27.98383,-66.48647 10.83834,-14.03041 -36.46575,60.89254 -25.53947,74.14367 9.2268,11.19004 38.9706,55.08598 37.99036,56.06622 -0.44806,0.44807 -2.14794,-0.30103 -3.77749,-1.66466 z" id="path1225" transform="scale(0.26458333)" sodipodi:nodetypes="sssssssssssssssss"/>
    <path style="fill:#008080;fill-opacity:1;stroke-width:2" d="m 321.14286,754.80858 c 0,-1.75528 -1.24036,-5.58028 -2.75636,-8.5 -1.516,-2.91972 -3.71732,-7.55858 -4.89182,-10.30858 -1.1745,-2.75 -5.21038,-11.75 -8.96861,-20 -3.75822,-8.25 -7.46755,-17.025 -8.24295,-19.5 -0.7754,-2.475 -2.24916,-4.5 -3.27504,-4.5 -1.02587,0 -1.86522,-1.14828 -1.86522,-2.55173 0,-3.47225 -17.84847,-32.05278 -21.26268,-34.04765 -1.50553,-0.87966 -2.73732,-2.58393 -2.73732,-3.78728 0,-5.54985 -43.66019,-47.61334 -49.42071,-47.61334 -1.41861,0 -2.57929,-0.91929 -2.57929,-2.04288 0,-1.12358 -2.475,-3.14213 -5.5,-4.48565 -3.025,-1.34353 -7.05676,-3.84914 -8.95947,-5.56802 -4.21976,-3.81208 -40.06674,-22.24957 -41.73314,-21.46497 -0.65594,0.30884 -2.49364,-0.51824 -4.08379,-1.83794 -4.25333,-3.52996 -41.30215,-18.35533 -42.60768,-17.04979 -0.61376,0.61375 -1.11592,-0.93905 -1.11592,-3.45068 0,-3.43597 0.86655,-4.29352 3.5,-3.46365 4.32512,1.36296 22.08191,7.48284 27.5,9.47788 28.35506,10.44086 71.88125,32.11825 83.64509,41.65786 4.90219,3.97531 11.41828,9.02784 14.48021,11.22784 5.17236,3.71634 8.6032,7.15102 26.64439,26.67421 3.72333,4.02919 9.11491,10.92579 11.98128,15.32579 2.86638,4.4 5.79806,8.45 6.51484,9 2.52752,1.93939 25.73419,48.82355 25.73419,51.99047 0,1.76524 0.83072,4.06453 1.84604,5.10953 1.81164,1.86459 14.15396,37.76052 14.15396,41.16484 0,0.95434 -1.35,1.73516 -3,1.73516 -1.65,0 -3,-1.43614 -3,-3.19142 z" id="path1227" transform="scale(0.26458333)"/>
    <path style="fill:#008080;fill-opacity:1;stroke-width:2" d="m 328.25296,594.72665 c -1.33274,-5.31006 -8.90764,-16.67392 -15.53432,-23.30456 -1.96668,-1.96785 -3.57578,-4.39961 -3.57578,-5.40392 0,-2.08432 -12.77153,-11.17839 -26.32689,-18.74626 -10.89978,-6.08528 -41.4054,-15.93503 -59.67311,-19.26745 -27.44442,-5.00643 -31.37626,-5.63212 -44,-7.00187 -7.15,-0.77581 -13.53618,-1.73609 -14.1915,-2.13395 -0.65532,-0.39786 -9.65532,-1.25493 -20,-1.9046 -10.34468,-0.64967 -21.0585,-1.50735 -23.8085,-1.90596 -2.75,-0.39861 -7.025,-0.79975 -9.5,-0.89141 -2.77178,-0.10266 -4.5,-1.42777 -4.5,-3.45035 0,-2.95734 3.13058,-3.16296 31.5,-2.06889 100.35954,3.87036 153.09549,11.55278 177.3096,25.82993 12.2542,7.22533 22.5345,18.06408 26.57884,28.02264 1.67524,4.125 3.84816,7.5 4.82872,7.5 0.98056,0 1.78284,0.9 1.78284,2 0,1.1 -3.15,2 -7,2 -3.85,0 -7,0.37539 -7,0.83419 0,0.4588 1.81644,5.07178 4.03654,10.25105 4.50512,10.51004 3.00942,14.91476 -5.06462,14.91476 -3.2356,0 -4.9182,-1.51369 -5.86182,-5.27335 z" id="path1229" transform="scale(0.26458333)"/>
    <path style="fill:#784421;fill-opacity:1;stroke-width:2" d="m 629.14286,456.5833 c -1.65,-0.60548 -7.05,-2.83358 -12,-4.9513 -4.95,-2.11772 -10.8,-4.60695 -13,-5.5316 C 591.30211,440.70344 577.06235,433.48777 576.0637,431.87192 575.4274,430.84237 573.13166,430 570.96205,430 c -2.1696,0 -4.46277,-1.35 -5.09594,-3 -0.63316,-1.65 -2.25062,-3 -3.59434,-3 -2.48287,0 -17.7882,-9.42509 -27.43262,-16.89314 -2.91703,-2.25877 -8.28498,-6.35686 -11.92876,-9.10686 -9.76757,-7.37169 -29.76753,-27.3362 -29.76753,-29.71478 0,-1.13212 -1.60242,-3.23444 -3.56093,-4.67181 C 487.62342,362.17603 481.33924,353.8 475.61707,345 c -5.72217,-8.8 -11.20963,-16.96913 -12.19437,-18.15362 -0.98473,-1.1845 -2.47184,-4.3345 -3.30469,-7 -0.83285,-2.66551 -2.06797,-5.29638 -2.74471,-5.84638 -3.71672,-3.02064 -27.17769,-61.71942 -25.38485,-63.51226 2.76876,-2.76876 6.90437,2.48567 11.82228,15.0206 9.8773,25.17558 34.12309,68.90494 46.82097,84.44562 4.93752,6.04292 29.57275,32.70388 32.20191,34.84982 1.47991,1.20792 6.87991,5.84613 12,10.30714 C 547.8301,406.43444 564.60353,418 568.02945,418 c 1.58254,0 3.46788,0.95551 4.18965,2.12337 0.72177,1.16785 3.24989,2.95228 5.61804,3.96541 2.36814,1.01313 7.90572,4.1015 12.30572,6.86305 4.4,2.76154 9.35,5.57346 11,6.24871 10.31743,4.22228 17.34945,7.6042 19.70176,9.47519 1.48597,1.18192 4.09588,2.35355 5.79979,2.60365 1.70391,0.25008 3.84933,1.63952 4.76761,3.08766 1.57456,2.4831 2.32484,5.82054 1.23084,5.47506 -0.275,-0.0868 -1.85,-0.6533 -3.5,-1.2588 z" id="path1231" transform="scale(0.26458333)"/>
    <path style="fill:#784421;fill-opacity:1;stroke-width:2" d="m 121.14286,420.15672 c 0,-1.0138 4.07881,-4.3888 9.06402,-7.5 13.03627,-8.13573 53.04543,-36.48397 58.93598,-41.75871 2.75,-2.46251 10.4,-9.24337 17,-15.06858 13.35522,-11.78743 25.27823,-23.97179 37.71228,-38.53894 4.55824,-5.34024 10.37121,-12.09024 12.9177,-15 2.5465,-2.90977 11.04265,-14.51549 18.88034,-25.79049 12.63452,-18.17554 17.48968,-23.49857 17.48968,-19.17509 0,3.83261 -32.32082,49.408 -45.86582,64.67509 -9.08039,10.23487 -30.37587,31.92045 -39.34936,40.07019 C 190.44641,377.9467 136.57564,416 131.58108,416 c -1.07165,0 -3.06884,1.35 -4.43822,3 -2.78294,3.35323 -6,3.97344 -6,1.15672 z" id="path1233" transform="scale(0.26458333)"/>
    <path style="fill:#784421;fill-opacity:1;stroke-width:2" d="m 111.14286,454.0461 c 0,-2.40664 7.2837,-7.1313 14,-9.08126 6.86164,-1.99215 58.83087,-27.77477 70.44124,-34.94682 8.65846,-5.34857 19.67875,-13.50295 37.31662,-27.61215 6.95731,-5.56542 22.77419,-21.56922 30.05074,-30.40587 2.26449,-2.75 5.25893,-6.31296 6.65432,-7.91769 13.24729,-15.23463 39.22986,-60.21387 51.72932,-89.55023 2.47162,-5.80095 7.15548,-9.85104 9.12026,-7.88624 0.65214,0.65212 -1.74242,7.44488 -7.17516,20.35416 -0.92584,2.2 -4.9355,11.02267 -8.91034,19.60594 -3.97486,8.58327 -7.227,16.38327 -7.227,17.33334 0,0.95006 -0.72031,2.02739 -1.60068,2.39405 C 304.66181,306.7 300.46192,313.3 296.20909,321 c -7.91226,14.32563 -16.88828,27.47647 -19.56623,28.66667 -0.825,0.36666 -1.5,1.522 -1.5,2.5674 0,1.04541 -2.7,4.54008 -6,7.76593 -3.3,3.22585 -6,6.79552 -6,7.93259 0,1.13708 -1.125,2.07 -2.5,2.07316 -1.375,0.003 -4.3,2.70058 -6.5,5.99425 -2.2,3.29367 -4.56188,5.99109 -5.24862,5.99425 -0.68674,0.003 -4.73674,3.21019 -9,7.12672 -8.593,7.89414 -25.27866,19.7352 -36.46706,25.87903 -4.00638,2.2 -7.73432,4.52082 -8.28432,5.15737 -3.24536,3.75608 -40.08917,20.73308 -60.61474,27.93023 -8.58811,3.01138 -16.16311,6.02358 -16.83334,6.6938 -1.93301,1.93302 -6.55192,1.41466 -6.55192,-0.7353 z" id="path1235" transform="scale(0.26458333)"/>
    <path style="fill:#784421;fill-opacity:1;stroke-width:2" d="m 107.14286,483.27858 c 0,-1.76854 3.67647,-3.22078 10.5,-4.14762 15.22662,-2.06824 16.88872,-2.36602 34.5,-6.18114 8.8,-1.90632 19.63291,-4.07806 24.07313,-4.82608 4.44022,-0.74802 9.23801,-2.07996 10.66175,-2.95988 3.24282,-2.00418 24.10884,-7.41552 28.63173,-7.42528 1.85163,-0.004 4.43683,-1.29682 5.74489,-2.87292 1.30805,-1.57612 3.2759,-2.86566 4.37299,-2.86566 3.07937,0 40.43193,-18.32996 41.15694,-20.19688 0.35278,-0.90844 3.94768,-3.69508 7.98866,-6.19254 4.04098,-2.49746 9.77242,-7.25653 12.73654,-10.57571 10.74037,-12.02693 19.63337,-23.45226 19.63337,-25.2241 0,-0.99592 1.13752,-1.81077 2.52784,-1.81077 2.44446,0 5.43686,-5.5978 16.57154,-31 8.64584,-19.72428 20.8364,-61.33705 28.26988,-96.5 2.30538,-10.90524 4.41388,-16.5 6.21834,-16.5 1.92864,0 2.38682,1.61478 1.56058,5.5 -0.6433,3.025 -2.94176,15.4 -5.10768,27.5 -7.10418,39.68796 -19.36766,85.09236 -28.0898,104 -10.18118,22.07051 -18.11936,34.99168 -21.5002,34.99642 -1.40222,0.002 -3.35422,2.12012 -4.33774,4.70701 C 301.40471,425.57166 287.1767,438 283.45443,438 c -1.16205,0 -2.83253,1.13597 -3.71219,2.52437 -0.87966,1.3884 -9.66805,6.47797 -19.52975,11.31013 -17.34364,8.49826 -31.8173,13.21788 -59.06963,19.2616 -7.15,1.58566 -14.20018,3.3383 -15.66705,3.89478 C 183.34014,475.80108 111.66355,486 108.10528,486 c -0.52933,0 -0.96242,-1.22464 -0.96242,-2.72142 z" id="path1237" transform="scale(0.26458333)"/>
    <path style="fill:#784421;fill-opacity:1;stroke-width:2" d="m 341.7382,749.5 c -4.08826,-22.94506 -8.07248,-40.37215 -12.45996,-54.5 -2.39128,-7.7 -5.30946,-17.375 -6.48486,-21.5 -1.17538,-4.125 -2.84442,-7.5 -3.70898,-7.5 -0.86454,0 -2.7252,-4.5 -4.13482,-10 -1.4096,-5.5 -3.22298,-10 -4.02972,-10 -0.80674,0 -2.50638,-3.15 -3.777,-7 -1.27062,-3.85 -3.03122,-7 -3.91246,-7 -0.88125,0 -2.72064,-2.7 -4.08754,-6 -1.36691,-3.3 -3.21545,-6 -4.10787,-6 -0.89242,0 -2.15679,-1.68316 -2.80972,-3.74035 -2.23999,-7.05756 -30.01366,-33.38667 -43.98477,-41.69703 -9.56885,-5.69178 -46.42651,-22.96303 -50.09764,-23.47542 -2.2,-0.30706 -5.35,-1.11755 -7,-1.8011 C 181.88138,545.44935 163.98156,540 160.64023,540 c -2.13203,0 -9.86614,-1.76318 -17.1869,-3.91817 -7.32076,-2.155 -16.01047,-4.31083 -19.31047,-4.79075 -11.17439,-1.62507 -17,-3.7157 -17,-6.10074 0,-1.74482 5.18032,-1.39559 19.5,1.31457 65.33451,12.36532 92.59707,20.24982 121.5,35.13857 14.57525,7.50814 21.61921,12.89534 37.02209,28.31442 29.09177,29.12238 41.47813,56.35335 54.87065,120.63121 8.56748,41.11993 9.86464,51.41089 6.48026,51.41089 -1.55768,0 -3.41742,-4.86574 -4.77766,-12.5 z" id="path1239" transform="scale(0.26458333)"/>
    <path style="fill:#784421;fill-opacity:1;stroke-width:2" d="m 316.14286,756.46786 c -2.31546,-1.70288 -9,-13.968 -9,-16.51362 0,-4.56894 -23.77408,-50.5561 -30.4777,-58.95424 -0.87805,-1.1 -3.35305,-4.1319 -5.5,-6.73756 -2.14695,-2.60565 -4.44506,-6.44372 -5.10692,-8.52904 -0.66185,-2.08531 -1.97377,-3.31535 -2.91538,-2.7334 -0.94161,0.58195 -2.33976,-0.91977 -3.10701,-3.33716 -1.36293,-4.2942 23.62817,-14.65544 20.90776,-14.65544 -0.75582,0 -65.53624,-30.5824 -67.6574,-32.5074 -6.77436,-6.14789 -9.3721,-7.99845 -16.14296,-11.4998 -3.64326,-1.884 -8.45347,-5.12977 -10.68937,-7.21283 C 184.21798,591.70432 181.31852,590 180.01062,590 c -1.30789,0 -3.49016,-1.34009 -4.84949,-2.97798 -1.35932,-1.63789 -3.20733,-2.52321 -4.10669,-1.96738 -0.89935,0.55584 -2.26089,-0.002 -3.02564,-1.23919 -0.76475,-1.23738 -9.85311,-6.28554 -20.19637,-11.21813 -16.29988,-7.77323 -21.19001,-9.67809 -26.81245,-10.4443 -1.96903,-0.26833 -10.17492,-8.52189 -9.32133,-9.37548 1.8289,-1.8289 16.81505,4.40029 58.44421,24.2931 39.70727,18.97443 74.99806,45.92099 92.52036,70.64463 5.17838,7.3066 10.95986,14.98127 12.84772,17.05482 1.88787,2.07355 4.8636,6.57355 6.61275,10 1.74915,3.42645 5.40959,9.82991 8.13431,14.22991 2.72471,4.4 5.89979,10.25 7.05573,13 1.15593,2.75 6.99037,15.8928 12.96541,29.20623 5.97504,13.31343 10.86372,24.78843 10.86372,25.49999 0,1.71324 -2.509,1.59362 -5,-0.23836 z" id="path1241" transform="scale(0.26458333)" sodipodi:nodetypes="sssssssssssssssssssssssssss"/>
    <path style="fill:#784421;fill-opacity:1;stroke-width:2" d="m 281.61511,740.5 c -3.2696,-5.225 -7.60747,-12.425 -9.6397,-16 -2.03224,-3.575 -4.40094,-6.5 -5.26377,-6.5 -0.86283,0 -1.56878,-1.21001 -1.56878,-2.68892 0,-1.47891 -2.33242,-5.30391 -5.18315,-8.5 C 257.10898,703.61499 252.38377,697.85 249.45924,694 c -2.92453,-3.85 -7.11712,-9.25 -9.31686,-12 -6.52818,-8.1612 -41.3837,-42.43997 -50.84126,-50 -4.81633,-3.85 -11.54726,-9.3502 -14.95761,-12.22266 -3.41036,-2.87246 -8.90065,-6.61158 -12.20065,-8.30915 -3.3,-1.69757 -8.25,-5.05715 -11,-7.46572 -2.75,-2.40858 -11.075,-7.93416 -18.5,-12.27907 -7.425,-4.34491 -13.5,-8.76014 -13.5,-9.81162 0,-3.34016 3.27332,-2.11663 16.29919,6.09241 6.98544,4.40231 14.72581,8.88004 17.20081,9.9505 2.475,1.07047 4.5,2.86858 4.5,3.99581 0,1.12722 0.95399,2.0495 2.11998,2.0495 1.16599,0 6.34099,3.11745 11.5,6.92767 5.15901,3.81022 13.36496,9.88522 18.23545,13.5 12.51834,9.29086 54.1072,50.06891 54.12759,53.07233 0.009,1.375 0.87641,2.5 1.92682,2.5 2.08143,0 28.9357,37.07129 33.53979,46.30039 1.56383,3.13479 3.49662,5.69961 4.29507,5.69961 0.79846,0 2.75305,3.375 4.34355,7.5 1.59049,4.125 3.19629,8.175 3.56844,9 0.37215,0.825 -0.20454,1.5 -1.28153,1.5 -1.077,0 -4.63331,-4.275 -7.90291,-9.5 z" id="path1243" transform="scale(0.26458333)"/>
    <path style="fill:#784421;fill-opacity:1;stroke-width:2" d="m 191.26807,649.96018 c -3.78114,-3.2325 -6.22614,-6.52592 -5.43334,-7.31872 0.7928,-0.7928 4.77146,1.88854 8.84146,5.95854 8.78868,8.78868 6.39749,9.743 -3.40812,1.36018 z" id="path1245" transform="scale(0.26458333)"/>
    <path style="fill:#784421;fill-opacity:1;stroke-width:2" d="m 546.14286,684 c 0.67983,-1.1 1.63295,-2 2.11803,-2 0.48508,0 0.88197,0.9 0.88197,2 0,1.1 -0.95312,2 -2.11804,2 -1.16492,0 -1.5618,-0.9 -0.88196,-2 z" id="path1247" transform="scale(0.26458333)"/>
    <path style="fill:#784421;fill-opacity:1;stroke-width:2" d="m 491.14286,732.79952 c 0,-4.531 70.08736,-75.15045 72.83853,-76.62766 29.28968,-15.72671 3.46248,31.21956 -15.47353,40.3112 -18.07643,8.67893 -41.965,21.48251 -46.365,27.11522 -7.26657,9.30239 -11,12.42531 -11,9.20124 z" id="path1249" transform="scale(0.26458333)" sodipodi:nodetypes="sssss"/>
    <path style="fill:#784421;fill-opacity:1;stroke-width:2" d="m 421.14286,755.3131 c 0,-3.63004 9.64412,-26.70114 18.94168,-45.3131 16.42279,-32.87538 23.85486,-44.67765 40.74597,-64.70545 32.61656,-38.67346 71.20861,-65.04431 129.0637,-88.19221 19.61219,-7.84687 22.94601,-8.55738 19.24865,-4.10234 -1.36938,1.65 -3.58562,3 -4.92498,3 -1.33938,0 -16.75417,7.10262 -34.25512,15.7836 -31.73545,15.74172 -53.51672,29.81742 -75.34239,48.68848 -10.87979,9.40697 -44.65264,48.30167 -51.95801,59.83776 -9.2499,14.60675 -37.5195,70.0208 -37.5195,73.5457 0,1.17946 -0.9,2.14446 -2,2.14446 -1.1,0 -2,-0.3091 -2,-0.6869 z" id="path1251" transform="scale(0.26458333)"/>
    <path style="fill:#784421;fill-opacity:1;stroke-width:2" d="m 411.14286,755.56666 c 0,-2.62166 0.79923,-5.62166 1.77608,-6.66666 0.97685,-1.045 4.19316,-8.99332 7.14737,-17.66291 7.96504,-23.3747 24.29801,-59.44663 27.57655,-60.90376 0.825,-0.36666 1.5,-1.87738 1.5,-3.35714 0,-1.47976 1.15868,-3.87976 2.57485,-5.33333 1.41617,-1.45357 4.74366,-6.24286 7.39443,-10.64286 2.65076,-4.4 5.36044,-8.45 6.0215,-9 0.66107,-0.55 3.23315,-3.90856 5.71575,-7.46347 17.58973,-25.18725 65.39837,-58.7031 109.29347,-76.61928 8.93703,-3.64773 28.3734,-10.50525 34,-11.99585 3.3,-0.87424 8.98204,-2.51773 12.62676,-3.6522 5.56462,-1.73208 6.5263,-1.57567 6,0.97588 -0.37394,1.81284 -9.09792,6.21228 -21.62676,10.90619 -58.87314,22.05677 -98.17539,48.00075 -130.05129,85.84873 -6.02179,7.15 -11.43186,13.45 -12.02237,14 -2.77893,2.58828 -21.64522,33.97231 -22.96842,38.2079 -0.82338,2.63565 -2.05074,5.2421 -2.72748,5.7921 -2.06581,1.67892 -15.38399,30.1088 -21.47975,45.85212 -5.87157,15.1643 -10.75069,20.48086 -10.75069,11.71454 z" id="path1253" transform="scale(0.26458333)"/>
    <path style="fill:#784421;fill-opacity:1;stroke-width:2" d="m 606.14286,391.75789 c -1.1,-1.12316 -13.7,-13.13176 -28,-26.68578 -14.3,-13.55402 -25.53765,-25.12743 -24.97255,-25.71868 0.5651,-0.59125 9.5822,7.18735 20.03801,17.28578 10.4558,10.09844 23.26845,21.84421 28.47255,26.10171 5.20409,4.25751 9.46199,8.53251 9.46199,9.5 0,2.31522 -2.49557,2.07413 -5,-0.48303 z" id="path1255" transform="scale(0.26458333)"/>
    <path style="fill:#784421;fill-opacity:1;stroke-width:2" d="" id="path1257" transform="scale(0.26458333)"/>
    <path style="fill:#784421;fill-opacity:1;stroke-width:2" d="" id="path1259" transform="scale(0.26458333)"/>
    <path style="fill:#784421;fill-opacity:1;stroke-width:2" d="" id="path1261" transform="scale(0.26458333)"/>
    <path style="fill:#784421;fill-opacity:1;stroke-width:2" d="" id="path1263" transform="scale(0.26458333)"/>
    <path style="fill:#d40000;fill-opacity:1;stroke-width:2" d="M 617.14286,423.7692 C 608.95902,419.34905 599.0634,412.33261 584.32519,400.5 578.50221,395.825 572.70405,392 571.4404,392 c -1.26365,0 -2.29754,-0.92825 -2.29754,-2.06277 0,-1.13452 -1.31341,-2.56677 -2.91869,-3.18278 -8.8236,-3.38593 -75.08131,-75.55118 -75.08131,-81.77556 0,-0.7718 -2.7,-4.8123 -6,-8.97889 -3.3,-4.16659 -6,-8.16434 -6,-8.88388 0,-0.71955 -3.15,-6.23251 -7,-12.25103 -3.85,-6.01852 -7,-11.82528 -7,-12.90392 0,-5.15278 4.42432,-0.60588 13.17384,13.53883 5.27332,8.525 10.18153,15.95 10.90712,16.5 0.72559,0.55 1.67921,2.0505 2.11915,3.33443 1.66737,4.86615 34.88694,45.27794 48.63843,59.16893 16.97584,17.14803 38.91191,36.56448 48.96972,43.34494 3.95546,2.66657 7.74516,5.67296 8.42156,6.68087 0.6764,1.00792 3.02271,2.87618 5.21402,4.1517 2.19132,1.27552 7.63725,4.75766 12.10207,7.73809 12.89255,8.60624 14.67744,13.95216 2.45409,7.35024 z" id="path1265" transform="scale(0.26458333)"/>
    <path style="fill:#d40000;fill-opacity:1;stroke-width:2" d="" id="path1267" transform="scale(0.26458333)"/>
    <path style="fill:#d40000;fill-opacity:1;stroke-width:2" d="M 337.26444,749.69572 C 333.43768,731.8521 320.96838,689.08344 319.01452,687.1 c -1.02942,-1.045 -1.87166,-3.8598 -1.87166,-6.25511 0,-2.39531 -1.29214,-5.4275 -2.87144,-6.7382 -1.5793,-1.31069 -3.42078,-4.88421 -4.0922,-7.94114 -1.4915,-6.79076 -19.43807,-34.04908 -34.74285,-52.76953 -15.03213,-18.38695 -32.46771,-31.36051 -60.29351,-44.86353 -23.41339,-11.36182 -82.08017,-31.75803 -97.5,-33.89707 -4.675,-0.64851 -8.5,-1.95678 -8.5,-2.90727 0,-2.60871 2.12171,-2.28371 33.73943,5.16826 37.95071,8.94457 56.64053,15.13428 81.63357,27.03546 24.96413,11.88742 33.90748,17.95225 50.627,34.33218 29.69516,29.09201 49.61128,71.7891 61.93526,132.77963 2.21786,10.97598 4.50686,21.98132 5.0867,24.45632 0.57984,2.475 0.21168,4.5 -0.81812,4.5 -1.02982,0 -2.86682,-4.63692 -4.08226,-10.30428 z" id="path1269" transform="scale(0.26458333)"/>
    <path style="fill:#d40000;fill-opacity:1;stroke-width:2" d="" id="path1271" transform="scale(0.26458333)"/>
    <path style="fill:#d40000;fill-opacity:1;stroke-width:2" d="m 127.22816,602.71134 c 0,-1.1 66.86781,51.28866 68.03273,51.28866 1.16492,0 68.89922,80.66096 68.21939,81.76096 C 262.80044,736.86096 194.5099,658 194.02482,658 c -0.48508,0 -66.79666,-54.18866 -66.79666,-55.28866 z" id="path1273" transform="scale(0.26458333)" sodipodi:nodetypes="sssss"/>
    <path style="fill:#d40000;fill-opacity:1;stroke-width:2" d="" id="path1275" transform="scale(0.26458333)"/>
    <path style="fill:#d40000;fill-opacity:1;stroke-width:2" d="m 226.2575,716.92627 c -14.03319,-3.07454 -97.46238,-101.82514 -62.27968,-66.50407 1.83861,1.84584 71.64287,70.01128 70.33392,71.32024 -0.54869,0.54869 8.94241,-1.09236 -8.05424,-4.81617 z" id="path1277" transform="scale(0.26458333)" sodipodi:nodetypes="ssss"/>
    <path style="fill:#d40000;fill-opacity:1;stroke-width:2" d="m 173.14286,385.24029 c 0,-0.41784 4.725,-4.33805 10.5,-8.71158 15.73105,-11.91345 46.84363,-41.9907 63.46731,-61.35532 16.85367,-19.63254 21.55187,-21.6448 6.4513,-2.76312 -21.65674,27.07949 -80.41861,80.29638 -80.41861,72.83002 z" id="path1279" transform="scale(0.26458333)"/>
    <path style="fill:#d40000;fill-opacity:1;stroke-width:2" d="" id="path1281" transform="scale(0.26458333)"/>
    <path style="fill:#d40000;fill-opacity:1;stroke-width:2" d="" id="path1283" transform="scale(0.26458333)"/>
    <path style="fill:#d40000;fill-opacity:1;stroke-width:2" d="" id="path1285" transform="scale(0.26458333)"/>
    <path style="fill:#d40000;fill-opacity:1;stroke-width:2" d="" id="path1287" transform="scale(0.26458333)"/>
    <path style="fill:#d40000;fill-opacity:1;stroke-width:2" d="m 112.14286,482.043 c 2.2,-0.92744 17.5,-4.12806 34,-7.11246 16.5,-2.98442 36.75,-7.50646 45,-10.04898 8.25,-2.54252 18.34293,-5.22514 22.42874,-5.96138 4.08581,-0.73624 8.47101,-2.59446 9.74489,-4.1294 1.27388,-1.53492 3.16493,-2.79078 4.20234,-2.79078 1.0374,0 8.75091,-3.1717 17.14112,-7.04822 19.92919,-9.20784 41.92089,-25.91687 52.78811,-40.10776 4.78214,-6.24473 10.82988,-13.71429 13.43944,-16.59904 10.91664,-12.06789 26.69712,-54.9608 40.06782,-108.90838 7.43452,-29.99647 10.18754,-38.27289 10.18754,-30.62686 0,1.85702 -3.12384,18.88202 -6.94188,37.83333 -13.55844,67.29917 -28.95938,108.2521 -49.47443,131.55839 -26.62217,30.24434 -73.85221,49.15982 -152.02029,60.88364 -34.88085,5.23152 -48.07965,6.22652 -40.5634,3.0579 z" id="path1289" transform="scale(0.26458333)"/>
    <path style="fill:#d40000;fill-opacity:1;stroke-width:2" d="m 622.14286,498.76882 c -2.2,-0.37754 -37.75,-2.05264 -79,-3.72246 -41.25,-1.6698 -78.15,-3.97694 -82,-5.12696 -3.85,-1.15004 -12.26167,-2.4641 -18.69261,-2.92014 -6.43093,-0.45604 -12.81374,-1.75964 -14.18401,-2.89686 -1.37028,-1.13724 -2.99997,-1.55914 -3.62154,-0.93758 -0.62157,0.62158 -3.68876,-0.20208 -6.81598,-1.83032 -7.97314,-4.15138 -18.33769,-22.29596 -20.84093,-36.48496 C 395.838,438.33229 393.55114,428.95 391.90587,424 c -5.07592,-15.27148 -10.38347,-180 -5.7996,-180 1.75691,0 2.75728,10.47062 3.6783,38.5 1.84625,56.18732 9.86538,121.56391 16.34696,133.27005 1.59268,2.87647 3.85647,9.05495 5.03064,13.72995 1.17418,4.675 3.00017,8.5 4.05778,8.5 1.0576,0 1.92291,1.35595 1.92291,3.01323 0,1.65727 2.25,4.96957 5,7.36067 2.75,2.3911 5,5.60754 5,7.14766 0,1.54012 3.6,4.21434 8,5.94272 4.4,1.72836 8,4.45224 8,6.05308 0,1.81792 1.17379,2.46016 3.12669,1.71078 1.71968,-0.65992 5.80698,0.1862 9.0829,1.88024 8.70323,4.50062 42.60497,12.48474 58.79041,13.84558 7.7,0.6474 17.15,1.60266 21,2.12282 17.69753,2.39098 22.41327,2.91006 44,4.84338 12.65,1.13294 30.87494,2.28938 40.49986,2.56988 12.39446,0.36118 17.49988,1.2393 17.5,3.00996 1.4e-4,2.37894 -5.71434,2.86232 -14.99986,1.26882 z" id="path1291" transform="scale(0.26458333)"/>
    <path style="fill:#d40000;fill-opacity:1;stroke-width:2" d="m 347.62978,569.5 c -1.10157,-1.375 -67.28552,-47.89569 -69.53898,-52.37073 -13.54233,-26.89306 16.61221,2.46157 -61.94794,-4.9016 -25.93171,-2.43049 148.65921,2.12509 182.81552,4.50441 71.6083,4.98822 -63.92009,9.06106 -48.93726,41.39996 4.63911,10.01305 4.98619,13.86796 1.24859,13.86796 -0.90039,0 -2.53836,-1.125 -3.63993,-2.5 z" id="path1293" transform="scale(0.26458333)" sodipodi:nodetypes="sssssss"/>
    <path style="fill:#d40000;fill-opacity:1;stroke-width:2" d="" id="path1295" transform="scale(0.26458333)"/>
    <path style="fill:#d40000;fill-opacity:1;stroke-width:2" d="m 386.10284,703 c 0.47623,-8.8 3.21842,-29.5 6.09375,-46 10.06059,-57.7324 17.46464,-79.48433 27.44627,-80.63284 6.76568,-0.77848 71.00135,-87.86137 64.74559,-78.643 C 475.29666,511.12166 394.72589,658.65593 388.0674,701 l -2.83044,18 z" id="path1297" transform="scale(0.26458333)" sodipodi:nodetypes="ssssscs"/>
    <path style="fill:#d40000;fill-opacity:1;stroke-width:2" d="" id="path1299" transform="scale(0.26458333)"/>
    <path style="fill:#d40000;fill-opacity:1;stroke-width:2" d="m 373.79914,733 c 0.009,-7.7 0.37036,-10.60493 0.80331,-6.45539 0.43295,4.14953 0.42569,10.44953 -0.0161,14 C 374.1445,744.09507 373.79026,740.7 373.79914,733 Z" id="path1301" transform="scale(0.26458333)"/>
    <path style="fill:#d40000;fill-opacity:1;stroke-width:2" d="" id="path1303" transform="scale(0.26458333)"/>
    <path style="fill:#d40000;fill-opacity:1;stroke-width:2" d="" id="path1305" transform="scale(0.26458333)"/>
    <path style="fill:#d40000;fill-opacity:1;stroke-width:2" d="m 463.14286,724.84716 c 0,-1.51968 18.57203,-29.13347 23.64002,-35.14914 26.46484,-31.41349 44.09953,-49.59318 59.35998,-61.1945 6.6,-5.01746 12.9,-10.16731 14,-11.44411 2.88813,-3.35234 46.46171,-31.76543 56.5,-36.84204 4.675,-2.36427 8.5,-3.44102 8.5,-2.39279 0,1.04823 -1.93835,2.52108 -4.30743,3.273 -10.07278,3.19697 -59.11622,38.68007 -80.99064,58.59699 -29.87749,27.20383 -44.68181,43.36751 -61.66757,67.33001 -12.61531,17.79693 -15.03436,20.6646 -15.03436,17.82258 z" id="path1307" transform="scale(0.26458333)"/>
    <path style="fill:#d40000;fill-opacity:1;stroke-width:2" d="m 435.14286,748.67277 c 0,-3.12168 23.27126,-45.0315 33.35915,-60.07738 22.16263,-33.05509 55.68512,-66.90953 86.64085,-87.49877 C 568.95005,591.91319 622.95954,562 625.73339,562 c 4.25709,0 -2.32233,4.66086 -20.1411,14.26795 -40.42624,21.79603 -64.54525,39.60766 -95.61725,70.61229 -22.62453,22.57548 -38.21333,43.72903 -61.62236,83.61976 -10.58407,18.03604 -13.20982,21.64829 -13.20982,18.17277 z" id="path1309" transform="scale(0.26458333)"/>
    <path style="fill:#d40000;fill-opacity:1;stroke-width:2" d="" id="path1311" transform="scale(0.26458333)"/>
    <path style="fill:#d40000;fill-opacity:1;stroke-width:1.31579" d="m 625.93703,446.76463 c -2.36196,-1.43641 -4.85099,-2.2677 -5.53117,-1.84731 -0.68017,0.42036 -1.23669,0.10231 -1.23669,-0.70679 0,-0.80911 -0.5921,-1.10516 -1.31579,-0.6579 -0.72368,0.44726 -1.31579,0.15121 -1.31579,-0.65789 0,-0.80911 -0.54436,-1.13466 -1.20971,-0.72346 -0.66534,0.41121 -1.99758,-0.0366 -2.96052,-0.99514 -0.96295,-0.95852 -7.07977,-4.6129 -13.59292,-8.12084 -23.92058,-12.88346 -28.11662,-15.31096 -31.86224,-18.43297 -0.87949,-0.73308 -2.48278,-2.07299 -3.56288,-2.97759 C 562.26922,410.74013 560.76841,410 560.01418,410 c -0.75423,0 -1.37132,-0.59211 -1.37132,-1.31579 0,-0.72368 -0.77724,-1.31579 -1.72719,-1.31579 -0.94996,0 -4.65062,-2.64468 -8.22369,-5.87706 -3.57307,-3.2324 -6.93607,-5.89687 -7.47333,-5.92106 -1.25568,-0.0566 -13.3275,-10.44909 -24.88758,-21.42556 -1.62992,-1.54765 -2.45911,-1.76336 -2.52893,-0.6579 -0.0571,0.90461 -0.69981,0.0128 -1.42817,-1.98188 -0.72837,-1.99464 -1.83612,-3.31029 -2.46169,-2.92367 -0.62556,0.38662 -1.80402,-0.54267 -2.61879,-2.06509 -1.49378,-2.79116 -2.55366,-4.07228 -9.94502,-12.02107 -2.23165,-2.39995 -4.8239,-5.79851 -5.76056,-7.55235 -0.93667,-1.75383 -3.06154,-4.54731 -4.72195,-6.20772 -1.66041,-1.66041 -3.40082,-4.22216 -3.86758,-5.69278 -0.46676,-1.47062 -1.36253,-2.67386 -1.9906,-2.67386 -0.62808,0 -1.87993,-2.04084 -2.78191,-4.53521 -0.90197,-2.49436 -2.06135,-4.27477 -2.57639,-3.95646 -0.51503,0.31831 -1.27952,-0.78823 -1.69885,-2.45899 -0.67025,-2.67049 -1.84196,-4.42553 -7.30955,-10.94861 -0.6936,-0.82749 -0.91398,-1.85164 -0.48974,-2.27588 0.42425,-0.42425 -0.67454,-3.00379 -2.44176,-5.73231 -1.76721,-2.72853 -4.89353,-8.80964 -6.94738,-13.51359 -2.05385,-4.70395 -4.25566,-9.21557 -4.89291,-10.02582 -0.63726,-0.81025 -3.50335,-7.23574 -6.3691,-14.27885 l -5.21045,-12.80567 3.58176,0.89896 c 1.96996,0.49443 3.61116,0.99886 3.64711,1.12096 1.49267,5.07031 23.7819,49.40373 25.58055,50.87989 0.44089,0.36184 -6.3967,-33.77165 -4.32304,-30.15323 2.07366,3.61843 13.30861,44.40403 14.09494,44.93572 0.78633,0.53168 0.94332,0.97576 0.34886,0.98684 -0.59445,0.0111 -0.2984,0.84269 0.6579,1.84803 0.9563,1.00534 2.74546,3.22573 3.97592,4.93421 3.92968,5.45631 12.80958,17.47863 15.1937,20.57044 1.26827,1.64473 6.0066,6.89446 10.52963,11.66607 4.52302,4.7716 8.22368,9.19893 8.22368,9.83852 0,0.63958 0.78811,1.16288 1.75134,1.16288 0.96324,0 2.54308,1.47937 3.51076,3.28749 0.96768,1.80812 2.00658,3.04032 2.30867,2.73823 0.47633,-0.47633 3.2693,1.59629 8.72445,6.47428 0.80931,0.72368 4.4312,3.66413 8.04865,6.53432 3.61745,2.8702 6.87324,5.53468 7.23508,5.92106 0.36184,0.38638 3.32237,2.75296 6.57895,5.25906 3.25658,2.5061 6.11842,5.02254 6.35965,5.59211 0.24122,0.56955 0.95299,1.03555 1.58169,1.03555 0.62871,0 4.95467,2.66447 9.61325,5.92105 4.65858,3.25658 8.79234,5.92106 9.18613,5.92106 1.2039,0 14.6772,8.48638 15.14524,9.53947 0.24123,0.54276 1.53852,0.98684 2.88288,0.98684 1.34434,0 2.78704,0.55461 3.20597,1.23248 0.41895,0.67785 2.37823,2.06139 4.35398,3.07452 1.97575,1.01313 5.83067,3.12299 8.5665,4.68858 2.73583,1.56559 5.83309,2.84653 6.88281,2.84653 1.76369,0 4.28495,6.00712 3.04267,7.24941 -0.30135,0.30134 -2.48043,-0.62733 -4.84239,-2.06373 z" id="path1313" transform="scale(0.26458333)" sodipodi:nodetypes="sssssssssssssssssssssssssssssssssscscssssssssssssssssssssssssssss"/>
    <path style="fill:#d40000;fill-opacity:1;stroke-width:1.31579" d="m 627.08042,460.72671 c -1.80013,-0.99639 -3.72447,-1.53257 -4.27631,-1.19151 -0.55184,0.34106 -1.00336,-0.007 -1.00336,-0.77333 0,-0.7664 -0.44408,-1.32333 -0.98684,-1.23763 -0.54276,0.0856 -1.28289,0.0404 -1.64474,-0.10066 -0.36184,-0.14107 -1.83135,-0.475 -3.26559,-0.74207 -1.43422,-0.26705 -2.80472,-1.07664 -3.04554,-1.79909 -0.2408,-0.72243 -1.28774,-0.98738 -2.32651,-0.58876 -1.03876,0.39859 -1.88867,0.0693 -1.88867,-0.73183 0,-0.80112 -1.06617,-1.45657 -2.36927,-1.45657 -3.02281,0 -9.4491,-2.95689 -9.46257,-4.35397 -0.005,-0.58547 -0.56543,-0.72138 -1.24395,-0.30204 -0.67853,0.41936 -6.45155,-1.72907 -12.82895,-4.77426 -6.37739,-3.04519 -12.18737,-5.57375 -12.91105,-5.61902 -0.72369,-0.0453 -2.03709,-0.97044 -2.91869,-2.05597 -0.88158,-1.08553 -1.62171,-1.50826 -1.64473,-0.93941 -0.023,0.56886 -2.25166,-0.46733 -4.95254,-2.30263 -2.7009,-1.8353 -5.66142,-3.33691 -6.57896,-3.33691 -0.91753,0 -1.66824,-0.5921 -1.66824,-1.31579 0,-0.72368 -0.68424,-1.31579 -1.52054,-1.31579 -0.83629,0 -3.50077,-1.51039 -5.92105,-3.35643 -2.42028,-1.84604 -4.40052,-2.9805 -4.40052,-2.52101 0,0.45947 -2.3056,-0.99065 -5.12355,-3.22252 -2.81796,-2.23187 -5.77849,-4.05793 -6.57895,-4.05793 -0.80047,0 -1.45539,-0.49174 -1.45539,-1.09274 0,-0.601 -2.62809,-2.98009 -5.8402,-5.28685 -10.57071,-7.59131 -24.74325,-21.25677 -35.4747,-34.20543 -2.60575,-3.14413 -4.76144,-5.2165 -4.79041,-4.60526 -0.029,0.61123 -0.93605,-0.51696 -2.01571,-2.50709 -1.07966,-1.99013 -2.46439,-3.61842 -3.07716,-3.61842 -0.61277,0 -1.84679,-1.76879 -2.74226,-3.93065 -0.89547,-2.16185 -2.03545,-3.6789 -2.53328,-3.37123 -0.49783,0.30768 -2.03973,-2.36432 -3.42643,-5.93777 -1.3867,-3.57346 -2.97509,-6.49719 -3.52975,-6.49719 -0.55466,0 -1.89267,-1.92434 -2.97336,-4.27632 -1.08069,-2.35197 -2.56925,-5.16447 -3.30792,-6.25 -0.73866,-1.08552 -1.93336,-3.45395 -2.65489,-5.26316 -0.72152,-1.80921 -1.86921,-4.17763 -2.55042,-5.26315 -2.03151,-3.2373 -7.52523,-16.06304 -9.29937,-21.71053 -0.90938,-2.89474 -2.1072,-5.85526 -2.66183,-6.57895 -0.55464,-0.72368 -1.76535,-3.98026 -2.69048,-7.23684 -0.92513,-3.25658 -2.06,-6.51316 -2.52195,-7.23684 -1.7027,-2.66747 -9.64749,-28.30625 -8.97863,-28.97511 1.91246,-1.91246 4.81273,1.57442 6.90923,8.30667 4.03232,12.94857 13.85575,37.16647 21.45979,52.90528 7.36486,15.24376 24.38077,42.05332 33.11548,52.17539 2.59371,3.00567 90.25267,113.31303 92.78556,116.66508 5.49293,7.26937 -64.62137,-85.64698 -49.25394,-73.87001 12.11531,9.28467 28.4207,19.50322 31.12063,19.50322 0.92483,0 2.29383,1.14411 3.0422,2.54248 0.74838,1.39835 2.69355,2.93826 4.32262,3.42201 1.62905,0.48374 9.77113,4.28801 18.0935,8.45394 8.32236,4.16592 22.08881,10.43951 30.5921,13.94131 8.57653,3.53196 15.46053,7.13082 15.46053,8.08254 0,2.18549 -2.397,2.11637 -6.56244,-0.18925 z" id="path1315" transform="scale(0.26458333)" sodipodi:nodetypes="sssssssssscssssssssssssssssssssssssssssssssssssssssssss"/>
    <path style="fill:#d40000;fill-opacity:1;stroke-width:1.31579" d="m 567.60365,340.59492 c -18.98901,-19.50905 -62.68785,-58.30432 -60.5516,-58.22374 1.85347,0.0699 21.74959,10.87201 26.7428,17.42026 5.35265,7.01962 21.92803,25.50502 36.58086,40.79617 5.37205,5.60607 31.06711,35.87552 30.70124,36.24139 -0.36587,0.36586 -27.30834,-29.90029 -33.4733,-36.23408 z" id="path1317" transform="scale(0.26458333)" sodipodi:nodetypes="ssssss"/>
    <path style="fill:#d40000;fill-opacity:1;stroke-width:1.31579" d="m 611.23499,400.34246 c -2.5112,-2.33968 -6.63019,-5.7047 -9.1533,-7.47781 -2.52312,-1.77311 -5.52237,-4.11999 -6.66501,-5.21529 -1.14264,-1.09531 -6.76091,-6.1362 -12.48504,-11.20199 -18.98369,-16.80033 -58.43268,-57.51204 -61.62342,-63.59592 -0.63273,-1.20646 -1.81694,-2.78566 -2.63158,-3.50934 -0.81463,-0.72369 -5.0254,-6.05264 -9.35727,-11.84211 -4.33186,-5.78947 -8.23003,-10.82237 -8.66259,-11.18421 -1.56046,-1.30534 -10.35007,-14.99718 -9.91006,-15.4372 0.83124,-0.83123 7.36982,2.68608 7.36982,3.96447 0,1.18963 15.72771,22.45093 20.72192,28.01267 1.26742,1.41144 4.5524,5.35794 7.29996,8.77 2.74755,3.41205 5.70808,6.96434 6.57894,7.89398 0.87087,0.92963 7.20839,7.85364 14.08339,15.38668 13.72988,15.04404 55.4207,54.76218 63.37011,60.37164 4.46609,3.15147 7.46664,7.48171 6.11848,8.82988 -0.2687,0.2687 -2.54315,-1.42577 -5.05435,-3.76545 z" id="path1319" transform="scale(0.26458333)"/>
    <path style="fill:#d40000;fill-opacity:1;stroke-width:1.31579" d="m 124.94219,405.49617 c 0.53246,-1.75115 15.7043,-19.27127 24.30699,-25.48817 1.70848,-1.23466 3.78085,-2.84917 4.60527,-3.58779 0.82441,-0.73862 23.55607,7.56085 9.32536,-8.69363 -24.6234,-28.12512 61.33024,-54.31605 89.99568,-88.97658 6.73326,-8.14145 12.82524,-14.80263 13.53775,-14.80263 1.8297,0 -3.24219,3.48051 -20.12844,23.60724 -32.21872,38.40148 -56.24266,63.2871 -92.54721,91.29075 -9.40789,7.25681 -18.81147,14.71885 -20.89684,16.58231 -2.24467,2.00582 -8.55385,11.23694 -8.19856,10.0685 z" id="path1321" transform="scale(0.26458333)" sodipodi:nodetypes="ssssssssss"/>
    <path style="fill:#d40000;fill-opacity:1;stroke-width:1.31579" d="m 122.28047,414.59512 c 0.45984,-1.19833 0.83607,-2.37149 0.83607,-2.60703 0,-0.23552 5.18092,-3.88293 11.51316,-8.10534 13.54323,-9.03076 36.15889,-25.56707 41.77632,-30.54634 2.17105,-1.92441 6.75457,-2.46309 8.92562,-4.14217 19.73832,-15.26553 48.2546,-47.74317 69.80174,-74.49084 8.30433,-10.30861 10.68004,-13.5195 21.89952,-29.59818 4.44889,-6.37575 10.55733,-10.89459 10.55733,-7.81002 0,1.78858 -27.74269,39.92474 -37.34444,51.33511 -29.3785,34.9123 -57.31639,59.90743 -99.49767,89.01735 -21.61216,14.91487 -29.48655,19.60267 -28.46765,16.94746 z" id="path1323" transform="scale(0.26458333)" sodipodi:nodetypes="sssssssssss"/>
    <path style="fill:#aa4400;fill-opacity:1;stroke-width:1.31579" d="m 117.32518,429.21545 c 0.38774,-1.01045 10.28692,-7.3209 21.99818,-14.02323 19.13519,-10.95101 28.38954,-17.00406 33.55822,-21.94961 0.9563,-0.91502 2.28341,-1.66366 2.94914,-1.66366 2.17476,0 24.86125,-17.96171 39.8857,-31.57895 8.28831,-7.51201 10.30374,-0.41757 20.67317,-11.71044 11.73383,-12.7788 15.87048,-26.34229 20.99936,-33.0264 2.49887,-3.25658 4.89601,-6.21711 5.327,-6.57895 2.05608,-1.72619 24.36246,-34.53643 30.47272,-44.82204 3.79586,-6.38967 7.93774,-11.88955 9.20419,-12.22196 2.94443,-0.77282 2.91379,0.26477 -0.10842,3.66972 -1.32603,1.49401 -5.87853,8.34139 -10.11665,15.21639 -11.01281,17.86482 -30.73734,45.52479 -42.24351,59.23866 -11.50508,13.71256 -37.77238,38.7742 -52.63256,50.21674 -15.58118,11.99771 -38.95282,27.40119 -58.59297,38.6167 -9.65574,5.51391 -18.11839,10.57179 -18.80589,11.23975 -1.87633,1.82299 -3.36742,1.46137 -2.56768,-0.62272 z" id="path1325" transform="scale(0.26458333)" sodipodi:nodetypes="sssssssssssssssss"/>
  </g>
  <script id="mesh_polyfill" type="text/javascript">
!function(){const t="http://www.w3.org/2000/svg",e="http://www.w3.org/1999/xlink",s="http://www.w3.org/1999/xhtml",r=2;if(document.createElementNS(t,"meshgradient").x)return;const n=(t,e,s,r)=&gt;{let n=new x(.5*(e.x+s.x),.5*(e.y+s.y)),o=new x(.5*(t.x+e.x),.5*(t.y+e.y)),i=new x(.5*(s.x+r.x),.5*(s.y+r.y)),a=new x(.5*(n.x+o.x),.5*(n.y+o.y)),h=new x(.5*(n.x+i.x),.5*(n.y+i.y)),l=new x(.5*(a.x+h.x),.5*(a.y+h.y));return[[t,o,a,l],[l,h,i,r]]},o=t=&gt;{let e=t[0].distSquared(t[1]),s=t[2].distSquared(t[3]),r=.25*t[0].distSquared(t[2]),n=.25*t[1].distSquared(t[3]),o=e&gt;s?e:s,i=r&gt;n?r:n;return 18*(o&gt;i?o:i)},i=(t,e)=&gt;Math.sqrt(t.distSquared(e)),a=(t,e)=&gt;t.scale(2/3).add(e.scale(1/3)),h=t=&gt;{let e,s,r,n,o,i,a,h=new g;return t.match(/(\w+\(\s*[^)]+\))+/g).forEach(t=&gt;{let l=t.match(/[\w.-]+/g),d=l.shift();switch(d){case"translate":2===l.length?e=new g(1,0,0,1,l[0],l[1]):(console.error("mesh.js: translate does not have 2 arguments!"),e=new g(1,0,0,1,0,0)),h=h.append(e);break;case"scale":1===l.length?s=new g(l[0],0,0,l[0],0,0):2===l.length?s=new g(l[0],0,0,l[1],0,0):(console.error("mesh.js: scale does not have 1 or 2 arguments!"),s=new g(1,0,0,1,0,0)),h=h.append(s);break;case"rotate":if(3===l.length&amp;&amp;(e=new g(1,0,0,1,l[1],l[2]),h=h.append(e)),l[0]){r=l[0]*Math.PI/180;let t=Math.cos(r),e=Math.sin(r);Math.abs(t)&lt;1e-16&amp;&amp;(t=0),Math.abs(e)&lt;1e-16&amp;&amp;(e=0),a=new g(t,e,-e,t,0,0),h=h.append(a)}else console.error("math.js: No argument to rotate transform!");3===l.length&amp;&amp;(e=new g(1,0,0,1,-l[1],-l[2]),h=h.append(e));break;case"skewX":l[0]?(r=l[0]*Math.PI/180,n=Math.tan(r),o=new g(1,0,n,1,0,0),h=h.append(o)):console.error("math.js: No argument to skewX transform!");break;case"skewY":l[0]?(r=l[0]*Math.PI/180,n=Math.tan(r),i=new g(1,n,0,1,0,0),h=h.append(i)):console.error("math.js: No argument to skewY transform!");break;case"matrix":6===l.length?h=h.append(new g(...l)):console.error("math.js: Incorrect number of arguments for matrix!");break;default:console.error("mesh.js: Unhandled transform type: "+d)}}),h},l=t=&gt;{let e=[],s=t.split(/[ ,]+/);for(let t=0,r=s.length-1;t&lt;r;t+=2)e.push(new x(parseFloat(s[t]),parseFloat(s[t+1])));return e},d=(t,e)=&gt;{for(let s in e)t.setAttribute(s,e[s])},c=(t,e,s,r,n)=&gt;{let o,i,a=[0,0,0,0];for(let h=0;h&lt;3;++h)e[h]&lt;t[h]&amp;&amp;e[h]&lt;s[h]||t[h]&lt;e[h]&amp;&amp;s[h]&lt;e[h]?a[h]=0:(a[h]=.5*((e[h]-t[h])/r+(s[h]-e[h])/n),o=Math.abs(3*(e[h]-t[h])/r),i=Math.abs(3*(s[h]-e[h])/n),a[h]&gt;o?a[h]=o:a[h]&gt;i&amp;&amp;(a[h]=i));return a},u=[[1,0,0,0,0,0,0,0,0,0,0,0,0,0,0,0],[0,0,0,0,1,0,0,0,0,0,0,0,0,0,0,0],[-3,3,0,0,-2,-1,0,0,0,0,0,0,0,0,0,0],[2,-2,0,0,1,1,0,0,0,0,0,0,0,0,0,0],[0,0,0,0,0,0,0,0,1,0,0,0,0,0,0,0],[0,0,0,0,0,0,0,0,0,0,0,0,1,0,0,0],[0,0,0,0,0,0,0,0,-3,3,0,0,-2,-1,0,0],[0,0,0,0,0,0,0,0,2,-2,0,0,1,1,0,0],[-3,0,3,0,0,0,0,0,-2,0,-1,0,0,0,0,0],[0,0,0,0,-3,0,3,0,0,0,0,0,-2,0,-1,0],[9,-9,-9,9,6,3,-6,-3,6,-6,3,-3,4,2,2,1],[-6,6,6,-6,-3,-3,3,3,-4,4,-2,2,-2,-2,-1,-1],[2,0,-2,0,0,0,0,0,1,0,1,0,0,0,0,0],[0,0,0,0,2,0,-2,0,0,0,0,0,1,0,1,0],[-6,6,6,-6,-4,-2,4,2,-3,3,-3,3,-2,-1,-2,-1],[4,-4,-4,4,2,2,-2,-2,2,-2,2,-2,1,1,1,1]],f=t=&gt;{let e=[];for(let s=0;s&lt;16;++s){e[s]=0;for(let r=0;r&lt;16;++r)e[s]+=u[s][r]*t[r]}return e},p=(t,e,s)=&gt;{const r=e*e,n=s*s,o=e*e*e,i=s*s*s;return t[0]+t[1]*e+t[2]*r+t[3]*o+t[4]*s+t[5]*s*e+t[6]*s*r+t[7]*s*o+t[8]*n+t[9]*n*e+t[10]*n*r+t[11]*n*o+t[12]*i+t[13]*i*e+t[14]*i*r+t[15]*i*o},y=t=&gt;{let e=[],s=[],r=[];for(let s=0;s&lt;4;++s)e[s]=[],e[s][0]=n(t[0][s],t[1][s],t[2][s],t[3][s]),e[s][1]=[],e[s][1].push(...n(...e[s][0][0])),e[s][1].push(...n(...e[s][0][1])),e[s][2]=[],e[s][2].push(...n(...e[s][1][0])),e[s][2].push(...n(...e[s][1][1])),e[s][2].push(...n(...e[s][1][2])),e[s][2].push(...n(...e[s][1][3]));for(let t=0;t&lt;8;++t){s[t]=[];for(let r=0;r&lt;4;++r)s[t][r]=[],s[t][r][0]=n(e[0][2][t][r],e[1][2][t][r],e[2][2][t][r],e[3][2][t][r]),s[t][r][1]=[],s[t][r][1].push(...n(...s[t][r][0][0])),s[t][r][1].push(...n(...s[t][r][0][1])),s[t][r][2]=[],s[t][r][2].push(...n(...s[t][r][1][0])),s[t][r][2].push(...n(...s[t][r][1][1])),s[t][r][2].push(...n(...s[t][r][1][2])),s[t][r][2].push(...n(...s[t][r][1][3]))}for(let t=0;t&lt;8;++t){r[t]=[];for(let e=0;e&lt;8;++e)r[t][e]=[],r[t][e][0]=s[t][0][2][e],r[t][e][1]=s[t][1][2][e],r[t][e][2]=s[t][2][2][e],r[t][e][3]=s[t][3][2][e]}return r};class x{constructor(t,e){this.x=t||0,this.y=e||0}toString(){return`(x=${this.x}, y=${this.y})`}clone(){return new x(this.x,this.y)}add(t){return new x(this.x+t.x,this.y+t.y)}scale(t){return void 0===t.x?new x(this.x*t,this.y*t):new x(this.x*t.x,this.y*t.y)}distSquared(t){let e=this.x-t.x,s=this.y-t.y;return e*e+s*s}transform(t){let e=this.x*t.a+this.y*t.c+t.e,s=this.x*t.b+this.y*t.d+t.f;return new x(e,s)}}class g{constructor(t,e,s,r,n,o){void 0===t?(this.a=1,this.b=0,this.c=0,this.d=1,this.e=0,this.f=0):(this.a=t,this.b=e,this.c=s,this.d=r,this.e=n,this.f=o)}toString(){return`affine: ${this.a} ${this.c} ${this.e} \n       ${this.b} ${this.d} ${this.f}`}append(t){t instanceof g||console.error("mesh.js: argument to Affine.append is not affine!");let e=this.a*t.a+this.c*t.b,s=this.b*t.a+this.d*t.b,r=this.a*t.c+this.c*t.d,n=this.b*t.c+this.d*t.d,o=this.a*t.e+this.c*t.f+this.e,i=this.b*t.e+this.d*t.f+this.f;return new g(e,s,r,n,o,i)}}class w{constructor(t,e){this.nodes=t,this.colors=e}paintCurve(t,e){if(o(this.nodes)&gt;r){const s=n(...this.nodes);let r=[[],[]],o=[[],[]];for(let t=0;t&lt;4;++t)r[0][t]=this.colors[0][t],r[1][t]=(this.colors[0][t]+this.colors[1][t])/2,o[0][t]=r[1][t],o[1][t]=this.colors[1][t];let i=new w(s[0],r),a=new w(s[1],o);i.paintCurve(t,e),a.paintCurve(t,e)}else{let s=Math.round(this.nodes[0].x);if(s&gt;=0&amp;&amp;s&lt;e){let r=4*(~~this.nodes[0].y*e+s);t[r]=Math.round(this.colors[0][0]),t[r+1]=Math.round(this.colors[0][1]),t[r+2]=Math.round(this.colors[0][2]),t[r+3]=Math.round(this.colors[0][3])}}}}class m{constructor(t,e){this.nodes=t,this.colors=e}split(){let t=[[],[],[],[]],e=[[],[],[],[]],s=[[[],[]],[[],[]]],r=[[[],[]],[[],[]]];for(let s=0;s&lt;4;++s){const r=n(this.nodes[0][s],this.nodes[1][s],this.nodes[2][s],this.nodes[3][s]);t[0][s]=r[0][0],t[1][s]=r[0][1],t[2][s]=r[0][2],t[3][s]=r[0][3],e[0][s]=r[1][0],e[1][s]=r[1][1],e[2][s]=r[1][2],e[3][s]=r[1][3]}for(let t=0;t&lt;4;++t)s[0][0][t]=this.colors[0][0][t],s[0][1][t]=this.colors[0][1][t],s[1][0][t]=(this.colors[0][0][t]+this.colors[1][0][t])/2,s[1][1][t]=(this.colors[0][1][t]+this.colors[1][1][t])/2,r[0][0][t]=s[1][0][t],r[0][1][t]=s[1][1][t],r[1][0][t]=this.colors[1][0][t],r[1][1][t]=this.colors[1][1][t];return[new m(t,s),new m(e,r)]}paint(t,e){let s,n=!1;for(let t=0;t&lt;4;++t)if((s=o([this.nodes[0][t],this.nodes[1][t],this.nodes[2][t],this.nodes[3][t]]))&gt;r){n=!0;break}if(n){let s=this.split();s[0].paint(t,e),s[1].paint(t,e)}else{new w([...this.nodes[0]],[...this.colors[0]]).paintCurve(t,e)}}}class b{constructor(t){this.readMesh(t),this.type=t.getAttribute("type")||"bilinear"}readMesh(t){let e=[[]],s=[[]],r=Number(t.getAttribute("x")),n=Number(t.getAttribute("y"));e[0][0]=new x(r,n);let o=t.children;for(let t=0,r=o.length;t&lt;r;++t){e[3*t+1]=[],e[3*t+2]=[],e[3*t+3]=[],s[t+1]=[];let r=o[t].children;for(let n=0,o=r.length;n&lt;o;++n){let o=r[n].children;for(let r=0,i=o.length;r&lt;i;++r){let i=r;0!==t&amp;&amp;++i;let h,d=o[r].getAttribute("path"),c="l";null!=d&amp;&amp;(c=(h=d.match(/\s*([lLcC])\s*(.*)/))[1]);let u=l(h[2]);switch(c){case"l":0===i?(e[3*t][3*n+3]=u[0].add(e[3*t][3*n]),e[3*t][3*n+1]=a(e[3*t][3*n],e[3*t][3*n+3]),e[3*t][3*n+2]=a(e[3*t][3*n+3],e[3*t][3*n])):1===i?(e[3*t+3][3*n+3]=u[0].add(e[3*t][3*n+3]),e[3*t+1][3*n+3]=a(e[3*t][3*n+3],e[3*t+3][3*n+3]),e[3*t+2][3*n+3]=a(e[3*t+3][3*n+3],e[3*t][3*n+3])):2===i?(0===n&amp;&amp;(e[3*t+3][3*n+0]=u[0].add(e[3*t+3][3*n+3])),e[3*t+3][3*n+1]=a(e[3*t+3][3*n],e[3*t+3][3*n+3]),e[3*t+3][3*n+2]=a(e[3*t+3][3*n+3],e[3*t+3][3*n])):(e[3*t+1][3*n]=a(e[3*t][3*n],e[3*t+3][3*n]),e[3*t+2][3*n]=a(e[3*t+3][3*n],e[3*t][3*n]));break;case"L":0===i?(e[3*t][3*n+3]=u[0],e[3*t][3*n+1]=a(e[3*t][3*n],e[3*t][3*n+3]),e[3*t][3*n+2]=a(e[3*t][3*n+3],e[3*t][3*n])):1===i?(e[3*t+3][3*n+3]=u[0],e[3*t+1][3*n+3]=a(e[3*t][3*n+3],e[3*t+3][3*n+3]),e[3*t+2][3*n+3]=a(e[3*t+3][3*n+3],e[3*t][3*n+3])):2===i?(0===n&amp;&amp;(e[3*t+3][3*n+0]=u[0]),e[3*t+3][3*n+1]=a(e[3*t+3][3*n],e[3*t+3][3*n+3]),e[3*t+3][3*n+2]=a(e[3*t+3][3*n+3],e[3*t+3][3*n])):(e[3*t+1][3*n]=a(e[3*t][3*n],e[3*t+3][3*n]),e[3*t+2][3*n]=a(e[3*t+3][3*n],e[3*t][3*n]));break;case"c":0===i?(e[3*t][3*n+1]=u[0].add(e[3*t][3*n]),e[3*t][3*n+2]=u[1].add(e[3*t][3*n]),e[3*t][3*n+3]=u[2].add(e[3*t][3*n])):1===i?(e[3*t+1][3*n+3]=u[0].add(e[3*t][3*n+3]),e[3*t+2][3*n+3]=u[1].add(e[3*t][3*n+3]),e[3*t+3][3*n+3]=u[2].add(e[3*t][3*n+3])):2===i?(e[3*t+3][3*n+2]=u[0].add(e[3*t+3][3*n+3]),e[3*t+3][3*n+1]=u[1].add(e[3*t+3][3*n+3]),0===n&amp;&amp;(e[3*t+3][3*n+0]=u[2].add(e[3*t+3][3*n+3]))):(e[3*t+2][3*n]=u[0].add(e[3*t+3][3*n]),e[3*t+1][3*n]=u[1].add(e[3*t+3][3*n]));break;case"C":0===i?(e[3*t][3*n+1]=u[0],e[3*t][3*n+2]=u[1],e[3*t][3*n+3]=u[2]):1===i?(e[3*t+1][3*n+3]=u[0],e[3*t+2][3*n+3]=u[1],e[3*t+3][3*n+3]=u[2]):2===i?(e[3*t+3][3*n+2]=u[0],e[3*t+3][3*n+1]=u[1],0===n&amp;&amp;(e[3*t+3][3*n+0]=u[2])):(e[3*t+2][3*n]=u[0],e[3*t+1][3*n]=u[1]);break;default:console.error("mesh.js: "+c+" invalid path type.")}if(0===t&amp;&amp;0===n||r&gt;0){let e=window.getComputedStyle(o[r]).stopColor.match(/^rgb\s*\(\s*(\d+)\s*,\s*(\d+)\s*,\s*(\d+)\s*\)$/i),a=window.getComputedStyle(o[r]).stopOpacity,h=255;a&amp;&amp;(h=Math.floor(255*a)),e&amp;&amp;(0===i?(s[t][n]=[],s[t][n][0]=Math.floor(e[1]),s[t][n][1]=Math.floor(e[2]),s[t][n][2]=Math.floor(e[3]),s[t][n][3]=h):1===i?(s[t][n+1]=[],s[t][n+1][0]=Math.floor(e[1]),s[t][n+1][1]=Math.floor(e[2]),s[t][n+1][2]=Math.floor(e[3]),s[t][n+1][3]=h):2===i?(s[t+1][n+1]=[],s[t+1][n+1][0]=Math.floor(e[1]),s[t+1][n+1][1]=Math.floor(e[2]),s[t+1][n+1][2]=Math.floor(e[3]),s[t+1][n+1][3]=h):3===i&amp;&amp;(s[t+1][n]=[],s[t+1][n][0]=Math.floor(e[1]),s[t+1][n][1]=Math.floor(e[2]),s[t+1][n][2]=Math.floor(e[3]),s[t+1][n][3]=h))}}e[3*t+1][3*n+1]=new x,e[3*t+1][3*n+2]=new x,e[3*t+2][3*n+1]=new x,e[3*t+2][3*n+2]=new x,e[3*t+1][3*n+1].x=(-4*e[3*t][3*n].x+6*(e[3*t][3*n+1].x+e[3*t+1][3*n].x)+-2*(e[3*t][3*n+3].x+e[3*t+3][3*n].x)+3*(e[3*t+3][3*n+1].x+e[3*t+1][3*n+3].x)+-1*e[3*t+3][3*n+3].x)/9,e[3*t+1][3*n+2].x=(-4*e[3*t][3*n+3].x+6*(e[3*t][3*n+2].x+e[3*t+1][3*n+3].x)+-2*(e[3*t][3*n].x+e[3*t+3][3*n+3].x)+3*(e[3*t+3][3*n+2].x+e[3*t+1][3*n].x)+-1*e[3*t+3][3*n].x)/9,e[3*t+2][3*n+1].x=(-4*e[3*t+3][3*n].x+6*(e[3*t+3][3*n+1].x+e[3*t+2][3*n].x)+-2*(e[3*t+3][3*n+3].x+e[3*t][3*n].x)+3*(e[3*t][3*n+1].x+e[3*t+2][3*n+3].x)+-1*e[3*t][3*n+3].x)/9,e[3*t+2][3*n+2].x=(-4*e[3*t+3][3*n+3].x+6*(e[3*t+3][3*n+2].x+e[3*t+2][3*n+3].x)+-2*(e[3*t+3][3*n].x+e[3*t][3*n+3].x)+3*(e[3*t][3*n+2].x+e[3*t+2][3*n].x)+-1*e[3*t][3*n].x)/9,e[3*t+1][3*n+1].y=(-4*e[3*t][3*n].y+6*(e[3*t][3*n+1].y+e[3*t+1][3*n].y)+-2*(e[3*t][3*n+3].y+e[3*t+3][3*n].y)+3*(e[3*t+3][3*n+1].y+e[3*t+1][3*n+3].y)+-1*e[3*t+3][3*n+3].y)/9,e[3*t+1][3*n+2].y=(-4*e[3*t][3*n+3].y+6*(e[3*t][3*n+2].y+e[3*t+1][3*n+3].y)+-2*(e[3*t][3*n].y+e[3*t+3][3*n+3].y)+3*(e[3*t+3][3*n+2].y+e[3*t+1][3*n].y)+-1*e[3*t+3][3*n].y)/9,e[3*t+2][3*n+1].y=(-4*e[3*t+3][3*n].y+6*(e[3*t+3][3*n+1].y+e[3*t+2][3*n].y)+-2*(e[3*t+3][3*n+3].y+e[3*t][3*n].y)+3*(e[3*t][3*n+1].y+e[3*t+2][3*n+3].y)+-1*e[3*t][3*n+3].y)/9,e[3*t+2][3*n+2].y=(-4*e[3*t+3][3*n+3].y+6*(e[3*t+3][3*n+2].y+e[3*t+2][3*n+3].y)+-2*(e[3*t+3][3*n].y+e[3*t][3*n+3].y)+3*(e[3*t][3*n+2].y+e[3*t+2][3*n].y)+-1*e[3*t][3*n].y)/9}}this.nodes=e,this.colors=s}paintMesh(t,e){let s=(this.nodes.length-1)/3,r=(this.nodes[0].length-1)/3;if("bilinear"===this.type||s&lt;2||r&lt;2){let n;for(let o=0;o&lt;s;++o)for(let s=0;s&lt;r;++s){let r=[];for(let t=3*o,e=3*o+4;t&lt;e;++t)r.push(this.nodes[t].slice(3*s,3*s+4));let i=[];i.push(this.colors[o].slice(s,s+2)),i.push(this.colors[o+1].slice(s,s+2)),(n=new m(r,i)).paint(t,e)}}else{let n,o,a,h,l,d,u;const x=s,g=r;s++,r++;let w=new Array(s);for(let t=0;t&lt;s;++t){w[t]=new Array(r);for(let e=0;e&lt;r;++e)w[t][e]=[],w[t][e][0]=this.nodes[3*t][3*e],w[t][e][1]=this.colors[t][e]}for(let t=0;t&lt;s;++t)for(let e=0;e&lt;r;++e)0!==t&amp;&amp;t!==x&amp;&amp;(n=i(w[t-1][e][0],w[t][e][0]),o=i(w[t+1][e][0],w[t][e][0]),w[t][e][2]=c(w[t-1][e][1],w[t][e][1],w[t+1][e][1],n,o)),0!==e&amp;&amp;e!==g&amp;&amp;(n=i(w[t][e-1][0],w[t][e][0]),o=i(w[t][e+1][0],w[t][e][0]),w[t][e][3]=c(w[t][e-1][1],w[t][e][1],w[t][e+1][1],n,o));for(let t=0;t&lt;r;++t){w[0][t][2]=[],w[x][t][2]=[];for(let e=0;e&lt;4;++e)n=i(w[1][t][0],w[0][t][0]),o=i(w[x][t][0],w[x-1][t][0]),w[0][t][2][e]=n&gt;0?2*(w[1][t][1][e]-w[0][t][1][e])/n-w[1][t][2][e]:0,w[x][t][2][e]=o&gt;0?2*(w[x][t][1][e]-w[x-1][t][1][e])/o-w[x-1][t][2][e]:0}for(let t=0;t&lt;s;++t){w[t][0][3]=[],w[t][g][3]=[];for(let e=0;e&lt;4;++e)n=i(w[t][1][0],w[t][0][0]),o=i(w[t][g][0],w[t][g-1][0]),w[t][0][3][e]=n&gt;0?2*(w[t][1][1][e]-w[t][0][1][e])/n-w[t][1][3][e]:0,w[t][g][3][e]=o&gt;0?2*(w[t][g][1][e]-w[t][g-1][1][e])/o-w[t][g-1][3][e]:0}for(let s=0;s&lt;x;++s)for(let r=0;r&lt;g;++r){let n=i(w[s][r][0],w[s+1][r][0]),o=i(w[s][r+1][0],w[s+1][r+1][0]),c=i(w[s][r][0],w[s][r+1][0]),x=i(w[s+1][r][0],w[s+1][r+1][0]),g=[[],[],[],[]];for(let t=0;t&lt;4;++t){(d=[])[0]=w[s][r][1][t],d[1]=w[s+1][r][1][t],d[2]=w[s][r+1][1][t],d[3]=w[s+1][r+1][1][t],d[4]=w[s][r][2][t]*n,d[5]=w[s+1][r][2][t]*n,d[6]=w[s][r+1][2][t]*o,d[7]=w[s+1][r+1][2][t]*o,d[8]=w[s][r][3][t]*c,d[9]=w[s+1][r][3][t]*x,d[10]=w[s][r+1][3][t]*c,d[11]=w[s+1][r+1][3][t]*x,d[12]=0,d[13]=0,d[14]=0,d[15]=0,u=f(d);for(let e=0;e&lt;9;++e){g[t][e]=[];for(let s=0;s&lt;9;++s)g[t][e][s]=p(u,e/8,s/8),g[t][e][s]&gt;255?g[t][e][s]=255:g[t][e][s]&lt;0&amp;&amp;(g[t][e][s]=0)}}h=[];for(let t=3*s,e=3*s+4;t&lt;e;++t)h.push(this.nodes[t].slice(3*r,3*r+4));l=y(h);for(let s=0;s&lt;8;++s)for(let r=0;r&lt;8;++r)(a=new m(l[s][r],[[[g[0][s][r],g[1][s][r],g[2][s][r],g[3][s][r]],[g[0][s][r+1],g[1][s][r+1],g[2][s][r+1],g[3][s][r+1]]],[[g[0][s+1][r],g[1][s+1][r],g[2][s+1][r],g[3][s+1][r]],[g[0][s+1][r+1],g[1][s+1][r+1],g[2][s+1][r+1],g[3][s+1][r+1]]]])).paint(t,e)}}}transform(t){if(t instanceof x)for(let e=0,s=this.nodes.length;e&lt;s;++e)for(let s=0,r=this.nodes[0].length;s&lt;r;++s)this.nodes[e][s]=this.nodes[e][s].add(t);else if(t instanceof g)for(let e=0,s=this.nodes.length;e&lt;s;++e)for(let s=0,r=this.nodes[0].length;s&lt;r;++s)this.nodes[e][s]=this.nodes[e][s].transform(t)}scale(t){for(let e=0,s=this.nodes.length;e&lt;s;++e)for(let s=0,r=this.nodes[0].length;s&lt;r;++s)this.nodes[e][s]=this.nodes[e][s].scale(t)}}document.querySelectorAll("rect,circle,ellipse,path,text").forEach((r,n)=&gt;{let o=r.getAttribute("id");o||(o="patchjs_shape"+n,r.setAttribute("id",o));const i=r.style.fill.match(/^url\(\s*"?\s*#([^\s"]+)"?\s*\)/),a=r.style.stroke.match(/^url\(\s*"?\s*#([^\s"]+)"?\s*\)/);if(i&amp;&amp;i[1]){const a=document.getElementById(i[1]);if(a&amp;&amp;"meshgradient"===a.nodeName){const i=r.getBBox();let l=document.createElementNS(s,"canvas");d(l,{width:i.width,height:i.height});const c=l.getContext("2d");let u=c.createImageData(i.width,i.height);const f=new b(a);"objectBoundingBox"===a.getAttribute("gradientUnits")&amp;&amp;f.scale(new x(i.width,i.height));const p=a.getAttribute("gradientTransform");null!=p&amp;&amp;f.transform(h(p)),"userSpaceOnUse"===a.getAttribute("gradientUnits")&amp;&amp;f.transform(new x(-i.x,-i.y)),f.paintMesh(u.data,l.width),c.putImageData(u,0,0);const y=document.createElementNS(t,"image");d(y,{width:i.width,height:i.height,x:i.x,y:i.y});let g=l.toDataURL();y.setAttributeNS(e,"xlink:href",g),r.parentNode.insertBefore(y,r),r.style.fill="none";const w=document.createElementNS(t,"use");w.setAttributeNS(e,"xlink:href","#"+o);const m="patchjs_clip"+n,M=document.createElementNS(t,"clipPath");M.setAttribute("id",m),M.appendChild(w),r.parentElement.insertBefore(M,r),y.setAttribute("clip-path","url(#"+m+")"),u=null,l=null,g=null}}if(a&amp;&amp;a[1]){const o=document.getElementById(a[1]);if(o&amp;&amp;"meshgradient"===o.nodeName){const i=parseFloat(r.style.strokeWidth.slice(0,-2))*(parseFloat(r.style.strokeMiterlimit)||parseFloat(r.getAttribute("stroke-miterlimit"))||1),a=r.getBBox(),l=Math.trunc(a.width+i),c=Math.trunc(a.height+i),u=Math.trunc(a.x-i/2),f=Math.trunc(a.y-i/2);let p=document.createElementNS(s,"canvas");d(p,{width:l,height:c});const y=p.getContext("2d");let g=y.createImageData(l,c);const w=new b(o);"objectBoundingBox"===o.getAttribute("gradientUnits")&amp;&amp;w.scale(new x(l,c));const m=o.getAttribute("gradientTransform");null!=m&amp;&amp;w.transform(h(m)),"userSpaceOnUse"===o.getAttribute("gradientUnits")&amp;&amp;w.transform(new x(-u,-f)),w.paintMesh(g.data,p.width),y.putImageData(g,0,0);const M=document.createElementNS(t,"image");d(M,{width:l,height:c,x:0,y:0});let S=p.toDataURL();M.setAttributeNS(e,"xlink:href",S);const k="pattern_clip"+n,A=document.createElementNS(t,"pattern");d(A,{id:k,patternUnits:"userSpaceOnUse",width:l,height:c,x:u,y:f}),A.appendChild(M),o.parentNode.appendChild(A),r.style.stroke="url(#"+k+")",g=null,p=null,S=null}}})}();
</script>
</svg>